<?xml version="1.0" encoding="UTF-8" standalone="no"?>
<svg
   width="1024"
   height="1024"
   version="1.1"
   id="svg164"
   xmlns="http://www.w3.org/2000/svg"
   xmlns:svg="http://www.w3.org/2000/svg">
  <defs
     id="defs27">
    <linearGradient
       id="gradient_0"
       gradientUnits="userSpaceOnUse"
       x1="396.87317"
       y1="643.12042"
       x2="444.68402"
       y2="640.37628"
       gradientTransform="matrix(1.100185,0,0,1.100185,-40.777671,-53.787909)">
      <stop
         offset="0"
         stop-color="#8FBFD4"
         id="stop26" />
      <stop
         offset="1"
         stop-color="#BCE1EB"
         id="stop27" />
    </linearGradient>
  </defs>
  <defs
     id="defs64">
    <linearGradient
       id="gradient_1"
       gradientUnits="userSpaceOnUse"
       x1="782.11023"
       y1="724.35699"
       x2="624.81073"
       y2="428.73575"
       gradientTransform="matrix(1.100185,0,0,1.100185,-40.777671,-53.787909)">
      <stop
         offset="0"
         stop-color="#75A3BF"
         id="stop63" />
      <stop
         offset="1"
         stop-color="#A5CADB"
         id="stop64" />
    </linearGradient>
  </defs>
  <defs
     id="defs67">
    <linearGradient
       id="gradient_2"
       gradientUnits="userSpaceOnUse"
       x1="190.40947"
       y1="689.526"
       x2="342.81046"
       y2="395.4462"
       gradientTransform="matrix(1.100185,0,0,1.100185,-40.777671,-53.787909)">
      <stop
         offset="0"
         stop-color="#83B0CA"
         id="stop66" />
      <stop
         offset="1"
         stop-color="#A6CCDD"
         id="stop67" />
    </linearGradient>
  </defs>
  <defs
     id="defs76">
    <linearGradient
       id="gradient_3"
       gradientUnits="userSpaceOnUse"
       x1="617.87958"
       y1="765.68994"
       x2="444.79733"
       y2="615.52972"
       gradientTransform="matrix(1.100185,0,0,1.100185,-40.777671,-53.787909)">
      <stop
         offset="0"
         stop-color="#6CA8C2"
         id="stop75" />
      <stop
         offset="1"
         stop-color="#9FBDD3"
         id="stop76" />
    </linearGradient>
  </defs>
  <defs
     id="defs78">
    <linearGradient
       id="gradient_4"
       gradientUnits="userSpaceOnUse"
       x1="582.62561"
       y1="795.24762"
       x2="401.08795"
       y2="584.99969"
       gradientTransform="matrix(1.100185,0,0,1.100185,-40.777671,-53.787909)">
      <stop
         offset="0"
         stop-color="#71A4BC"
         id="stop77" />
      <stop
         offset="1"
         stop-color="#99BFD9"
         id="stop78" />
    </linearGradient>
  </defs>
  <defs
     id="defs80">
    <linearGradient
       id="gradient_5"
       gradientUnits="userSpaceOnUse"
       x1="211.83557"
       y1="520.87921"
       x2="193.88223"
       y2="520.35895"
       gradientTransform="matrix(1.100185,0,0,1.100185,-40.777671,-53.787909)">
      <stop
         offset="0"
         stop-color="#6CA2C3"
         id="stop79" />
      <stop
         offset="1"
         stop-color="#BAD9E6"
         id="stop80" />
    </linearGradient>
  </defs>
  <g
     id="g164"
     transform="matrix(1.0355947,0,0,1.0355947,-23.691487,-18.122075)">
    <path
       fill="#14385a"
       d="m 521.37834,48.451731 c 3.95296,1.29745 7.97964,3.97068 11.66416,5.95684 l 22.72872,12.30458 85.32704,46.519119 166.84415,91.78843 c 33.92861,18.55682 68.3952,36.49644 101.83092,55.9158 3.02221,1.7559 5.47892,3.97167 7.91253,6.45369 1.28502,3.50629 1.44785,7.11489 1.49515,10.81041 0.39717,31.484 -0.0814,63.0186 -0.044,94.51029 l 0.0638,239.43876 0.0913,84.71424 c 0.0242,10.67399 1.55126,42.36482 -1.1783,51.1542 -0.49948,1.60847 -4.22031,3.76923 -5.68245,4.66148 -14.63796,8.9368 -30.3189,16.6667 -45.40463,24.84548 L 796.0648,816.68173 523.29044,969.12229 c -0.33556,0.065 -0.66451,0.1958 -1.00667,0.1969 -1.8021,0 -4.45685,-1.6503 -6.06202,-2.4864 -14.20009,-7.4032 -27.91389,-15.9956 -41.81033,-23.96644 Q 440.01086,923.07732 405.1482,904.11673 306.50121,850.94039 208.93131,795.81232 L 166.6545,772.56101 c -11.8919,-6.50979 -30.57414,-14.78868 -39.81349,-24.12925 -3.12783,-16.6623 -1.06498,-35.0959 -1.00887,-52.01895 l 0.0682,-91.18333 -0.0462,-194.79765 c -0.11442,-42.93581 -0.80643,-86.01466 -0.0858,-128.93727 0.0924,-5.43822 0.0693,-10.86543 1.66348,-16.10891 14.57415,-10.83572 35.19051,-20.43044 51.39404,-29.02838 q 36.40401,-19.50518 72.59459,-39.40313 L 430.31493,98.891361 c 30.39701,-16.73492 60.41445,-34.16735 91.06341,-50.43963 z"
       id="path1"
       style="stroke-width:1.10018" />
    <path
       fill="#fdfefd"
       d="m 521.59837,68.762791 c 9.61892,2.77357 20.16969,11.04256 29.19341,15.85147 Q 602.27164,111.92305 653.2278,140.1989 l 159.51362,87.48451 46.09555,25.27455 c 9.60681,5.20607 19.6537,9.97648 28.76543,16.01649 -13.7358,7.80691 -27.91829,15.00983 -41.78612,22.6044 q -61.48494,33.91981 -123.40555,67.03647 L 523.32456,467.80318 C 514.6496,465.26945 496.1687,453.92215 487.48934,449.16275 L 403.76526,402.90987 253.68463,320.47081 196.77316,289.76355 c -13.36174,-7.18971 -26.8071,-14.17699 -39.82779,-21.9751 14.02626,-8.78277 29.55647,-15.97358 44.19443,-23.72219 q 32.50826,-17.34441 64.72278,-35.22682 z"
       id="path2"
       style="stroke-width:1.10018" />
    <path
       fill="#14385a"
       d="m 522.10336,97.968301 c 8.42961,2.627239 16.80642,9.080929 24.44391,13.567479 7.27112,4.27202 14.73367,8.25139 22.13902,12.28467 l 169.44499,93.22967 q 29.68739,15.97249 59.16244,32.33444 c 10.55078,5.86508 22.27325,11.36381 31.68863,18.90228 -0.12872,0.099 -0.25524,0.20023 -0.38507,0.29815 l -0.6502,0.48518 c -11.36712,8.58474 -25.25255,14.82389 -37.70004,21.73305 q -37.27647,20.98383 -74.98091,41.19203 l -191.5708,105.55174 c -4.67799,-0.0946 -12.22636,-5.20937 -16.38946,-7.44165 Q 456.69736,402.46099 406.49482,374.08942 l -94.25724,-51.70429 -54.23912,-29.57627 c -9.97208,-5.3777 -34.05073,-16.6271 -41.25144,-23.63527 l 0.10342,-0.94176 c 5.85628,-6.69133 34.35878,-20.08168 43.73345,-25.18764 l 40.4593,-22.37996 z"
       id="path3"
       style="stroke-width:1.10018" />
    <path
       fill="#fdfefd"
       d="m 521.71389,108.42776 c 4.40844,1.05508 13.20992,6.86736 17.59526,9.28006 l 52.71096,29.26602 q 110.18683,60.0415 219.72564,121.25799 c -31.69743,18.89677 -64.2805,36.06406 -96.67325,53.72093 l -111.16819,61.30891 c -27.07005,14.8921 -54.34584,29.34083 -81.10454,44.79843 -6.71882,-1.83291 -13.42885,-7.51097 -19.55578,-10.98095 -13.44646,-7.61438 -27.03485,-15.03733 -40.60453,-22.42947 Q 347.84066,331.29883 232.33224,269.2473 c 24.93349,-15.30908 51.1454,-28.89966 76.76981,-43.02824 l 138.05781,-76.41224 c 24.88398,-13.77322 50.10242,-26.83131 74.55403,-41.37906 z"
       id="path4"
       style="stroke-width:1.10018" />
    <path
       fill="#14385a"
       d="m 519.73136,223.93508 c 2.21357,-0.0693 4.83971,-0.31575 6.578,1.34553 4.46125,4.26431 4.84192,51.09699 5.02785,59.40998 11.17128,-10.10189 27.63335,-22.27874 41.6244,-27.71255 3.17733,-1.23441 6.30516,-2.09586 9.532,-0.65902 0.63591,0.70082 1.03858,1.1717 1.1937,2.15087 0.26955,1.69978 -0.30695,3.16193 -1.57216,4.29512 -4.23572,3.79014 -9.82355,6.27985 -14.75238,9.08533 -12.86777,7.32173 -24.42521,15.4983 -33.93741,26.96223 0.21234,13.95695 1.33563,28.00961 2.33789,41.93135 10.43086,7.18421 38.21163,16.97585 44.48818,25.62111 0.73383,1.01107 0.71292,1.18709 0.48078,2.33239 -6.99387,3.75603 -46.56092,1.70308 -56.65402,1.62167 -8.00275,-0.0198 -55.20288,1.63488 -59.77195,-1.23551 -0.80533,-0.50608 -0.66011,-0.79103 -0.85374,-1.63597 2.47101,-6.41958 37.82106,-21.80677 45.98003,-25.90276 2.44241,-13.83812 2.72736,-28.05911 3.28075,-42.07217 -14.64236,-19.031 -28.78084,-22.06311 -47.03291,-34.5161 -1.33342,-0.90986 -4.08829,-2.73616 -4.26872,-4.49646 -0.15072,-1.46985 0.20684,-2.65475 1.22781,-3.73073 0.76023,-0.80203 1.85161,-1.10238 2.9463,-1.10348 7.60337,-0.008 32.57647,15.93618 39.2623,20.88041 3.21914,2.3797 6.12143,5.04985 9.00281,7.82121 1.11999,-11.64105 1.32792,-23.44934 1.801,-35.1333 0.26405,-6.5318 0.10012,-13.55648 1.61728,-19.92875 0.47858,-2.01224 1.33782,-3.61301 2.46221,-5.3304 z"
       id="path5"
       style="stroke-width:1.10018" />
    <path
       fill="#14385a"
       d="m 577.52077,195.44469 c 1.63928,-0.0759 3.13223,-0.16283 4.65819,0.5666 1.95723,0.93625 3.21804,2.91219 3.88035,4.91122 2.87368,8.67496 -0.94836,23.63968 -5.18077,31.48619 -6.22045,11.53104 -17.98582,14.2276 -29.59828,17.8032 -1.13429,0.18373 -1.98693,0.36636 -3.10802,-0.0682 -2.4006,-0.92966 -3.84515,-3.44908 -4.66918,-5.74737 -2.79557,-7.79591 -1.31913,-17.70968 2.11345,-25.10292 6.23805,-13.43876 18.78676,-18.95179 31.90426,-23.84871 z"
       id="path6"
       style="stroke-width:1.10018" />
    <path
       fill="#6f9bb9"
       d="m 576.65163,204.67744 c 0.50938,0.0506 1.16399,0.28385 1.66458,0.41477 0.42797,0.64911 0.51598,0.71072 0.81193,1.53256 1.64588,4.55917 -1.85491,15.25516 -3.87155,19.58769 -4.49095,9.64973 -13.683,12.71484 -22.92125,16.07921 l -0.90875,0.12542 -0.76463,-0.76903 c -0.95386,-6.83435 -0.66671,-13.14941 2.22127,-19.54589 4.61968,-10.23062 13.91404,-13.79082 23.7684,-17.42473 z"
       id="path7"
       style="stroke-width:1.10018" />
    <path
       fill="#14385a"
       d="m 463.40959,195.39078 c 7.64409,-0.20793 15.41909,2.73616 21.77926,6.83325 8.9324,5.75507 15.4642,14.33431 17.64477,24.82567 1.65688,7.97084 0.81083,15.03843 -3.70763,21.89368 -0.91755,0.46868 -1.7845,0.94176 -2.81977,1.08369 -7.06429,0.96266 -17.8725,-4.58117 -23.40203,-8.81469 -7.59568,-5.81667 -11.14048,-13.97784 -12.27477,-23.2304 -0.93295,-7.60228 -2.12445,-16.22993 2.78017,-22.5912 z"
       id="path8"
       style="stroke-width:1.10018" />
    <path
       fill="#6f9bb9"
       d="m 467.28884,203.92052 c 8.98081,1.44674 17.88571,6.62311 23.1688,14.09226 5.30509,7.49997 5.80127,15.88337 4.38643,24.61114 -7.20071,-1.98033 -14.46303,-4.82651 -19.6746,-10.40115 -7.18091,-7.68149 -8.3185,-18.28177 -7.88063,-28.30225 z"
       id="path9"
       style="stroke-width:1.10018" />
    <path
       fill="#14385a"
       d="m 412.56124,194.2829 c 9.84446,0.30255 20.37873,4.13889 27.9568,10.43965 q 0.74263,0.6062 1.45445,1.24871 0.71182,0.64141 1.39063,1.31912 0.67881,0.67662 1.32352,1.38624 0.64471,0.70961 1.25311,1.45114 0.60841,0.74042 1.1794,1.51055 0.571,0.77013 1.10239,1.56777 0.53139,0.79763 1.02317,1.62167 0.49178,0.82294 0.94176,1.66898 0.44997,0.84714 0.85704,1.71519 0.40707,0.86804 0.77123,1.75479 0.36306,0.88675 0.68212,1.7911 0.31905,0.90436 0.593,1.82301 0.27394,0.91866 0.50058,1.85051 0.22774,0.93076 0.40927,1.87252 0.18153,0.94065 0.31465,1.89011 0.13422,0.94946 0.22114,1.90442 c 0.51488,6.17974 -0.5809,11.16908 -4.59107,15.94168 -1.10569,0.16283 -2.22568,0.31466 -3.34457,0.33006 -8.84878,0.12542 -17.82189,-4.33363 -24.12045,-10.32634 -8.26129,-7.85862 -13.39805,-20.38862 -13.48607,-31.76564 -0.0308,-4.10699 0.61831,-7.99614 3.5679,-10.99524 z"
       id="path10"
       style="stroke-width:1.10018" />
    <path
       fill="#6f9bb9"
       d="m 416.75075,202.28124 c 7.94003,0.88895 16.37955,5.27869 21.71985,11.18668 6.71113,7.42405 8.24808,16.22003 7.84982,25.80814 -0.25084,0.0308 -0.50169,0.0682 -0.75253,0.0924 -5.76497,0.5578 -12.4673,-3.06951 -16.6458,-6.76173 -9.04462,-7.99175 -11.47713,-18.75926 -12.17134,-30.3255 z"
       id="path11"
       style="stroke-width:1.10018" />
    <path
       fill="#14385a"
       d="m 630.32525,193.95394 c 1.2036,-0.003 2.28839,0.0891 3.28405,0.86365 2.25648,1.75479 2.83298,5.58563 2.98921,8.22828 0.6436,10.89623 -2.9331,23.28761 -10.33184,31.45209 -7.42845,8.19527 -17.14638,11.15037 -27.91939,11.61465 -0.63261,-0.37186 -1.26522,-0.73162 -1.84281,-1.1871 -2.69546,-2.12556 -4.04098,-5.50863 -4.46786,-8.83339 -1.17169,-9.13263 2.79117,-19.82313 8.23489,-27.05464 7.1369,-9.4803 18.67344,-13.54548 30.05375,-15.08354 z"
       id="path12"
       style="stroke-width:1.10018" />
    <path
       fill="#6f9bb9"
       d="m 626.29968,202.00399 1.37633,0.46208 c 0.40596,0.71732 0.45437,0.73933 0.75802,1.61617 1.81531,5.24678 -1.92422,16.0638 -4.52506,20.8023 -4.92552,8.97091 -12.29676,11.23619 -21.59223,13.96685 -0.70632,-0.45438 -1.1882,-0.82734 -1.58206,-1.60627 -2.01114,-3.98157 0.36306,-12.22526 1.99133,-16.26074 4.30833,-10.68059 13.62579,-14.93721 23.57367,-18.98039 z"
       id="path13"
       style="stroke-width:1.10018" />
    <path
       fill="#14385a"
       d="m 522.49832,152.31084 c 5.21378,2.3643 9.04793,6.72763 11.8721,11.60365 5.54603,9.57711 8.15457,21.3975 5.13016,32.22442 -2.44241,8.74427 -7.54727,15.54671 -15.51701,20.00906 -5.07735,-0.83064 -8.87409,-3.63391 -11.85559,-7.79811 -5.88489,-8.22168 -7.78931,-19.95515 -5.93,-29.77211 2.04305,-10.77851 7.21282,-19.98706 16.30034,-26.26691 z"
       id="path14"
       style="stroke-width:1.10018" />
    <path
       fill="#6f9bb9"
       d="m 522.78107,162.12889 c 0.55009,0.38176 1.05728,0.74372 1.53916,1.2113 5.84638,5.69676 8.03135,15.10994 8.07866,23.05878 0.0517,8.48903 -2.83298,15.79205 -8.85869,21.85517 -0.64691,-0.22993 -1.22011,-0.43567 -1.7867,-0.83834 -5.06635,-3.6009 -7.1116,-9.40328 -7.76731,-15.33437 q -0.11002,-0.99567 -0.17163,-1.99574 -0.0605,-1.00007 -0.0726,-2.00124 -0.011,-1.00117 0.0275,-2.00233 0.0374,-1.00117 0.12542,-1.99904 0.088,-0.99787 0.22444,-1.99023 0.13642,-0.99237 0.32235,-1.97704 0.18593,-0.98356 0.42027,-1.95833 0.23434,-0.97366 0.51709,-1.93522 0.28164,-0.96046 0.6117,-1.90662 0.32896,-0.94616 0.70522,-1.87472 0.37516,-0.92855 0.79653,-1.83731 0.42137,-0.90875 0.88785,-1.7955 0.46538,-0.88675 0.97477,-1.74929 0.50828,-0.86255 1.05947,-1.69979 0.5512,-0.83614 1.1431,-1.64367 0.5919,-0.80864 1.2234,-1.58647 z"
       id="path15"
       style="stroke-width:1.10018" />
    <path
       fill="#14385a"
       d="m 462.71867,279.08295 c 7.32834,-0.29155 14.8448,2.53703 20.98823,6.41738 3.13223,1.97923 6.68913,4.89032 7.40975,8.74867 0.40707,2.17947 -0.29485,4.28412 -1.55456,6.05762 -4.65159,6.5483 -14.77879,8.81358 -22.16433,10.30213 -5.3282,0.28385 -10.39785,-1.04407 -15.29257,-3.04641 -4.68239,-1.91652 -11.37151,-5.08175 -13.22202,-10.1118 -0.72062,-1.96053 -0.47418,-3.91336 0.53139,-5.71876 3.89245,-6.98728 16.12321,-10.62229 23.30411,-12.64883 z"
       id="path16"
       style="stroke-width:1.10018" />
    <path
       fill="#6f9bb9"
       d="m 463.61753,287.38495 c 4.59107,0.24534 9.65082,0.75582 13.55977,3.38637 1.84281,1.23991 2.74607,2.45561 3.14213,4.69229 -0.22884,1.13429 -0.40707,1.8164 -1.15079,2.74496 -2.67895,3.34676 -9.06002,3.83304 -13.01739,4.42824 -7.61878,-0.6106 -12.86886,-2.79887 -18.82966,-7.49446 4.95083,-4.03658 10.06229,-6.40197 16.29594,-7.7574 z"
       id="path17"
       style="stroke-width:1.10018" />
    <path
       fill="#14385a"
       d="m 578.8751,279.69685 c 6.06312,-0.45217 12.4508,1.67779 17.8252,4.35014 3.90235,1.93962 8.9522,4.83531 10.26142,9.27896 0.5743,1.94952 0.20574,3.93866 -0.84494,5.65165 -4.01017,6.5362 -14.47733,9.74764 -21.47231,11.55854 -7.50766,0.46648 -15.52031,-0.87905 -22.10821,-4.63948 -3.21805,-1.83731 -6.48009,-4.60317 -7.34704,-8.37791 -0.5688,-2.48092 0.10122,-4.92223 1.52926,-6.98507 4.47885,-6.46909 14.81729,-9.39998 22.15662,-10.83683 z"
       id="path18"
       style="stroke-width:1.10018" />
    <path
       fill="#6f9bb9"
       d="m 576.88377,287.34094 q 4.10259,-0.17493 8.14577,0.54789 c 3.63391,0.67222 9.30426,2.28509 11.14817,5.86069 0.5798,1.12549 0.68212,2.30378 0.10562,3.45568 -1.70969,3.41387 -8.67716,4.36663 -12.11744,5.13676 -8.9159,0.008 -14.58185,-1.83731 -22.0191,-6.64842 4.61638,-3.78573 8.98081,-6.5901 14.73698,-8.3526 z"
       id="path19"
       style="stroke-width:1.10018" />
    <path
       fill="#14385a"
       d="m 615.66529,252.24944 c 5.14666,0.0902 9.92917,1.55896 14.54884,3.75603 4.89033,2.32469 11.93151,6.33267 13.59279,11.78298 0.6205,2.03424 0.34216,4.02668 -0.78113,5.83098 -3.80884,6.11923 -14.2309,8.3031 -20.73519,9.81805 q -3.27415,0.0594 -6.49989,-0.49948 c -10.34724,-1.70529 -17.72838,-7.49446 -23.63638,-15.88557 1.01107,-1.91542 2.08375,-3.73623 3.45459,-5.42171 4.93212,-6.06422 12.58391,-8.47913 20.05637,-9.38128 z"
       id="path20"
       style="stroke-width:1.10018" />
    <path
       fill="#6f9bb9"
       d="m 613.24488,260.38311 q 1.30152,-0.0957 2.60524,-0.13422 c 8.12266,-0.20134 13.81062,4.33472 19.36545,9.63982 -3.99587,2.32689 -7.94883,4.14659 -12.45299,5.23688 -9.01712,0.55119 -15.24746,-3.01891 -22.0158,-8.36251 3.98927,-3.10032 7.7596,-4.7704 12.4981,-6.37997 z"
       id="path21"
       style="stroke-width:1.10018" />
    <path
       fill="#14385a"
       d="m 426.70412,253.40353 q 1.1915,0.0264 2.3775,0.13973 1.186,0.11222 2.361,0.31135 1.17499,0.19913 2.33239,0.48188 1.15739,0.28275 2.29168,0.64911 1.13319,0.36746 2.23778,0.81414 1.10459,0.44777 2.17286,0.97476 1.06938,0.52589 2.09696,1.12879 1.02867,0.6029 2.01004,1.27842 c 2.24767,1.52595 4.7946,3.77253 5.04214,6.67922 0.18263,2.13216 -0.92965,4.1895 -2.26088,5.76717 -5.42941,6.43278 -16.41036,10.7158 -24.62874,11.2945 -6.72873,-1.00887 -13.98225,-2.73946 -19.59869,-6.78264 -1.92643,-1.38844 -4.1466,-3.61741 -4.35563,-6.13793 -0.18264,-2.21468 0.54789,-4.04428 1.90662,-5.75617 5.46571,-6.89266 17.61396,-10.12831 26.01497,-10.84233 z"
       id="path22"
       style="stroke-width:1.10018" />
    <path
       fill="#6f9bb9"
       d="m 423.53669,261.47339 c 7.18641,-0.36746 11.63005,0.95276 17.63926,4.87382 -4.7704,4.31163 -9.07542,7.1303 -15.33988,8.9302 -7.1688,-0.23434 -12.56961,-2.20917 -18.64593,-5.90359 5.25998,-3.79014 10.1448,-6.05652 16.34655,-7.90043 z"
       id="path23"
       style="stroke-width:1.10018" />
    <path
       fill="#14385a"
       d="m 853.76622,265.27893 c 0.55999,-0.009 1.11998,-0.0286 1.67998,-0.002 2.18607,0.10452 4.82211,0.85814 6.13133,2.75926 0.82954,1.20361 0.86585,2.62285 0.5765,4.00248 -0.52589,2.50732 -2.76477,4.00797 -4.69779,5.3986 -0.94066,0.20574 -1.98694,0.40047 -2.9507,0.39717 -1.45004,-0.005 -2.9936,-0.79213 -3.91336,-1.89232 -1.14199,-1.36423 -1.31802,-3.26975 -1.03637,-4.96183 0.47638,-2.85828 1.99133,-4.07729 4.21041,-5.70116 z"
       id="path24"
       style="stroke-width:1.10018" />
    <path
       fill="#14385a"
       d="m 187.85066,263.3349 q 0.14743,-0.0352 0.29705,-0.0638 0.14853,-0.0286 0.29925,-0.0495 0.15073,-0.022 0.30145,-0.0352 0.15183,-0.0143 0.30366,-0.0209 0.15182,-0.006 0.30365,-0.006 0.15182,0.001 0.30365,0.01 0.15182,0.008 0.30255,0.0242 0.15072,0.0154 0.30145,0.0385 0.14962,0.0231 0.29815,0.0528 0.14962,0.0297 0.29705,0.0671 0.14632,0.0374 0.29155,0.0825 0.14522,0.044 0.28825,0.0957 0.14302,0.0517 0.28384,0.11002 0.13973,0.0583 0.27725,0.12322 0.13642,0.066 0.27065,0.13752 0.13422,0.0715 0.26404,0.14962 0.13092,0.0781 0.25634,0.16283 0.12653,0.0836 0.24865,0.17493 0.12212,0.0902 0.23984,0.18593 0.11772,0.0968 0.22993,0.19804 0.11332,0.10231 0.22004,0.20903 0.10782,0.10782 0.21014,0.22004 0.10231,0.11222 0.19913,0.22884 0.0968,0.11772 0.18813,0.23874 0.0902,0.12212 0.17493,0.24754 0.0858,0.12652 0.16393,0.25634 0.0792,0.12982 0.15072,0.26405 0.0726,0.13312 0.13863,0.26954 0.0649,0.13752 0.12432,0.27725 0.0594,0.13972 0.11112,0.28275 0.0517,0.14302 0.0968,0.28824 0.0451,0.14413 0.0836,0.29155 0.0385,0.14743 0.0693,0.29595 0.0308,0.14853 0.0539,0.29815 0.0231,0.15073 0.0396,0.30145 0.0165,0.15073 0.0253,0.30255 0.009,0.15183 0.011,0.30366 0.001,0.15182 -0.004,0.30365 -0.007,0.15182 -0.0198,0.30255 -0.0132,0.15182 -0.033,0.30255 -0.0209,0.14962 -0.0484,0.29925 -0.0275,0.14962 -0.0627,0.29705 -0.0352,0.14742 -0.077,0.29375 -0.0429,0.14632 -0.0913,0.28935 -0.0495,0.14412 -0.10561,0.28494 -0.0561,0.14083 -0.11882,0.27945 -0.0638,0.13862 -0.13313,0.27285 -0.0693,0.13532 -0.14522,0.26734 -0.0759,0.13092 -0.15843,0.25855 -0.0825,0.12762 -0.17053,0.25084 -0.088,0.12432 -0.18263,0.24314 -0.0946,0.11882 -0.19473,0.23324 -0.10012,0.11442 -0.20463,0.22334 -0.10562,0.11001 -0.21674,0.21343 -0.11002,0.10452 -0.22554,0.20244 -0.11552,0.099 -0.23544,0.19253 -0.12102,0.0924 -0.24534,0.17933 -0.12432,0.0869 -0.25304,0.16723 -0.12872,0.0814 -0.26074,0.15512 -0.13203,0.0748 -0.26845,0.14303 -0.13532,0.0682 -0.27505,0.12872 -0.13862,0.0616 -0.28054,0.11552 -0.14193,0.055 -0.28605,0.10231 -0.14413,0.0473 -0.29045,0.088 -0.39937,0.11002 -0.80864,0.16723 -0.41036,0.0561 -0.82403,0.0583 -0.41477,0.002 -0.82514,-0.0506 -0.41037,-0.0528 -0.81084,-0.15843 -0.39937,-0.10672 -0.78223,-0.26514 -0.38287,-0.15733 -0.74153,-0.36526 -0.35866,-0.20684 -0.68651,-0.45878 -0.32786,-0.25304 -0.61941,-0.54679 -0.29154,-0.29375 -0.54239,-0.62381 -0.25084,-0.32895 -0.45547,-0.68871 -0.20464,-0.35976 -0.36086,-0.74373 -0.15513,-0.38396 -0.25965,-0.78443 -0.10341,-0.40047 -0.15292,-0.81194 -0.0506,-0.41037 -0.0451,-0.82514 0.004,-0.41367 0.0638,-0.82293 0.0594,-0.41037 0.17163,-0.80864 0.11222,-0.39827 0.27725,-0.77783 0.16392,-0.38067 0.37736,-0.73602 0.21233,-0.35426 0.47088,-0.67882 0.25744,-0.32345 0.55669,-0.6106 0.29815,-0.28715 0.63151,-0.53249 0.33335,-0.24424 0.69642,-0.44338 0.36306,-0.19913 0.74922,-0.34875 0.38617,-0.14963 0.78883,-0.24645 z"
       id="path25"
       style="stroke-width:1.10018" />
    <path
       fill="#add5e3"
       d="m 197.96906,353.46426 281.05876,153.91807 c -0.76023,9.87416 -0.51379,19.81763 -0.51379,29.7138 l 0.004,41.52098 c 0.009,52.78577 0.83064,105.71127 -0.19473,158.48274 0.31245,12.94588 -0.17933,25.85875 -0.25304,38.80133 l -0.0748,67.88691 -25.12052,-14.53674 c -4.04978,-2.09586 -7.91143,-4.55807 -11.80168,-6.93117 -12.4376,-7.35474 -25.32846,-13.89534 -37.73525,-21.32489 -8.10286,-5.02124 -16.6887,-9.49239 -25.0116,-14.15387 -4.05198,-2.22458 -8.10397,-4.42275 -12.00082,-6.91687 -8.3471,-4.11139 -16.47747,-8.99951 -24.64634,-13.47286 q -6.17314,-2.89679 -11.78629,-6.76724 c -8.58144,-4.41504 -16.88123,-9.41868 -25.23494,-14.2474 -4.1477,-2.07825 -8.24038,-4.13229 -12.15154,-6.64071 -8.02695,-4.08279 -15.79096,-8.73877 -23.61547,-13.19672 -4.1543,-2.29169 -8.23929,-4.62518 -12.24616,-7.16551 -19.57339,-11.05355 -39.49664,-21.469 -58.67617,-33.21458 l -0.0253,-315.41973 z"
       id="path26"
       style="stroke-width:1.10018" />
    <path
       fill="url(#gradient_0)"
       d="m 197.96906,353.46426 281.05876,153.91807 c -0.76023,9.87416 -0.51379,19.81763 -0.51379,29.7138 l 0.004,41.52098 c 0.009,52.78577 0.83064,105.71127 -0.19473,158.48274 0.31245,12.94588 -0.17933,25.85875 -0.25304,38.80133 l -0.0748,67.88691 -25.12052,-14.53674 c -4.04978,-2.09586 -7.91143,-4.55807 -11.80168,-6.93117 -12.4376,-7.35474 -25.32846,-13.89534 -37.73525,-21.32489 -8.10286,-5.02124 -16.6887,-9.49239 -25.0116,-14.15387 -4.05198,-2.22458 -8.10397,-4.42275 -12.00082,-6.91687 -8.3471,-4.11139 -16.47747,-8.99951 -24.64634,-13.47286 q -6.17314,-2.89679 -11.78629,-6.76724 c 2.61844,-5.11916 0.79214,-19.23233 0.72613,-25.47698 -0.12543,-11.77748 0.28494,-23.56487 0.24644,-35.34455 -0.0341,-10.53317 -1.27072,-22.0499 0.69751,-32.42795 3.10033,0.68102 6.32497,-0.94066 9.13704,-2.08485 8.62655,-4.29842 17.46324,-8.19968 26.22731,-12.20875 q 4.82101,-2.47212 9.74104,-4.7407 c 8.97971,-3.5756 19.85173,-7.02798 26.34613,-14.45753 -1.7834,-8.72777 -0.95056,-19.053 -0.92526,-28.00301 l 0.582,-51.29392 c 1.12329,-0.18043 1.48305,-0.10232 1.74489,-1.41374 0.63701,-3.18943 -0.12322,-8.53963 -0.13202,-11.9084 -0.0143,-6.00041 -0.42357,-55.03895 0.75583,-56.38668 -7.98845,-6.16874 -17.50395,-10.45396 -26.43855,-15.10114 -2.84838,-2.35439 -6.70783,-3.96946 -10.08869,-5.42611 -7.47906,-5.9487 -16.97586,-9.92037 -25.5848,-13.99545 -3.27416,-2.42701 -7.60228,-3.98377 -11.32421,-5.64835 -7.87182,-5.69456 -16.49617,-9.97868 -25.07541,-14.48944 -3.07282,-2.61624 -7.05989,-4.40294 -10.6773,-6.12473 -8.52863,-4.7451 -17.11118,-9.22175 -25.81364,-13.64339 -12.40568,-7.01368 -24.92799,-13.78642 -37.26546,-20.94202 -11.58825,-6.72103 -22.19514,-14.01746 -34.82856,-18.76696 z"
       id="path27"
       style="fill:url(#gradient_0);stroke-width:1.10018" />
    <path
       fill="#add5e3"
       d="m 197.96906,353.46426 281.05876,153.91807 c -0.76023,9.87416 -0.51379,19.81763 -0.51379,29.7138 l 0.004,41.52098 c 0.009,52.78577 0.83064,105.71127 -0.19473,158.48274 0.31245,12.94588 -0.17933,25.85875 -0.25304,38.80133 l -0.0748,67.88691 -25.12052,-14.53674 c -4.04978,-2.09586 -7.91143,-4.55807 -11.80168,-6.93117 1.10238,-6.50869 0.20243,-13.92504 0.0594,-20.51405 q -0.23324,-13.7127 -0.0528,-27.42651 c 0.51488,-53.37327 -0.39387,-106.80376 0.54899,-160.15943 -1.64038,-10.36814 -0.66121,-24.92139 -0.68652,-35.67129 l -0.0374,-75.11293 c -8.09846,-6.09503 -26.51336,-16.22993 -35.86493,-19.49858 -7.98845,-6.16874 -17.50395,-10.45396 -26.43855,-15.10114 -2.84838,-2.35439 -6.70783,-3.96946 -10.08869,-5.42611 -7.47906,-5.9487 -16.97586,-9.92037 -25.5848,-13.99545 -3.27416,-2.42701 -7.60228,-3.98377 -11.32421,-5.64835 -7.87182,-5.69456 -16.49617,-9.97868 -25.07541,-14.48944 -3.07282,-2.61624 -7.05989,-4.40294 -10.6773,-6.12473 -8.52863,-4.7451 -17.11118,-9.22175 -25.81364,-13.64339 -12.40568,-7.01368 -24.92799,-13.78642 -37.26546,-20.94202 -11.58825,-6.72103 -22.19514,-14.01746 -34.82856,-18.76696 z"
       id="path28"
       style="stroke-width:1.10018" />
    <path
       fill="#90bfd4"
       d="m 197.96906,353.46426 281.05876,153.91807 c -0.76023,9.87416 -0.51379,19.81763 -0.51379,29.7138 l 0.004,41.52098 c 0.009,52.78577 0.83064,105.71127 -0.19473,158.48274 -0.5732,-0.68321 -0.54899,-1.89342 -0.54789,-2.75486 l 0.48078,-211.86372 c -8.97201,-3.94086 -17.45884,-10.96114 -26.97764,-13.42776 -0.76133,25.93686 0.10452,51.62508 0.5721,77.55644 0.27944,15.52361 0.15952,31.07143 0.20903,46.59834 l 0.5963,119.47018 c 0.0649,25.49679 -0.35646,51.08709 0.21894,76.57288 -4.04978,-2.09586 -7.91143,-4.55807 -11.80168,-6.93117 1.10238,-6.50869 0.20243,-13.92504 0.0594,-20.51405 q -0.23324,-13.7127 -0.0528,-27.42651 c 0.51488,-53.37327 -0.39387,-106.80376 0.54899,-160.15943 -1.64038,-10.36814 -0.66121,-24.92139 -0.68652,-35.67129 l -0.0374,-75.11293 c -8.09846,-6.09503 -26.51336,-16.22993 -35.86493,-19.49858 -7.98845,-6.16874 -17.50395,-10.45396 -26.43855,-15.10114 -2.84838,-2.35439 -6.70783,-3.96946 -10.08869,-5.42611 -7.47906,-5.9487 -16.97586,-9.92037 -25.5848,-13.99545 -3.27416,-2.42701 -7.60228,-3.98377 -11.32421,-5.64835 -7.87182,-5.69456 -16.49617,-9.97868 -25.07541,-14.48944 -3.07282,-2.61624 -7.05989,-4.40294 -10.6773,-6.12473 -8.52863,-4.7451 -17.11118,-9.22175 -25.81364,-13.64339 -12.40568,-7.01368 -24.92799,-13.78642 -37.26546,-20.94202 -11.58825,-6.72103 -22.19514,-14.01746 -34.82856,-18.76696 z"
       id="path29"
       style="stroke-width:1.10018" />
    <path
       fill="#add5e3"
       d="m 403.01494,632.94314 c 1.45224,3.27195 0.99896,9.27346 1.07048,12.92387 0.56439,29.03169 -0.47638,58.10517 -0.48739,87.14346 l 0.0242,42.46493 c 0.006,8.46593 0.32785,17.07598 -0.28385,25.51989 -8.10286,-5.02124 -16.6887,-9.49239 -25.0116,-14.15387 -4.05198,-2.22458 -8.10397,-4.42275 -12.00082,-6.91687 -8.3471,-4.11139 -16.47747,-8.99951 -24.64634,-13.47286 q -6.17314,-2.89679 -11.78629,-6.76724 c 2.61844,-5.11916 0.79214,-19.23233 0.72613,-25.47698 -0.12543,-11.77748 0.28494,-23.56487 0.24644,-35.34455 -0.0341,-10.53317 -1.27072,-22.0499 0.69751,-32.42795 3.10033,0.68102 6.32497,-0.94066 9.13704,-2.08485 8.62655,-4.29842 17.46324,-8.19968 26.22731,-12.20875 q 4.82101,-2.47212 9.74104,-4.7407 c 8.97971,-3.5756 19.85173,-7.02798 26.34613,-14.45753 z"
       id="path30"
       style="stroke-width:1.10018" />
    <path
       fill="#add5e3"
       d="m 366.92777,652.14137 c 0.81084,2.68115 -0.5743,127.69297 -0.6018,127.78318 -8.3471,-4.11139 -16.47747,-8.99951 -24.64634,-13.47286 q -6.17314,-2.89679 -11.78629,-6.76724 c 2.61844,-5.11916 0.79214,-19.23233 0.72613,-25.47698 -0.12543,-11.77748 0.28494,-23.56487 0.24644,-35.34455 -0.0341,-10.53317 -1.27072,-22.0499 0.69751,-32.42795 3.10033,0.68102 6.32497,-0.94066 9.13704,-2.08485 8.62655,-4.29842 17.46324,-8.19968 26.22731,-12.20875 z"
       id="path31"
       style="stroke-width:1.10018" />
    <path
       fill="#90bfd4"
       d="m 331.56342,666.43497 c 3.10033,0.68102 6.32497,-0.94066 9.13704,-2.08485 0.91205,23.38773 0.77233,46.9702 0.79763,70.37663 0.011,10.51887 -0.32675,21.22147 0.18154,31.72494 q -6.17314,-2.89679 -11.78629,-6.76724 c 2.61844,-5.11916 0.79214,-19.23233 0.72613,-25.47698 -0.12543,-11.77748 0.28494,-23.56487 0.24644,-35.34455 -0.0341,-10.53317 -1.27072,-22.0499 0.69751,-32.42795 z"
       id="path32"
       style="stroke-width:1.10018" />
    <path
       fill="#90bfd4"
       d="m 366.92777,652.14137 q 4.82101,-2.47212 9.74104,-4.7407 c 2.01554,16.82183 1.25971,34.4842 1.37413,51.43585 q 0.40487,44.0019 0.28385,88.0049 c -4.05198,-2.22458 -8.10397,-4.42275 -12.00082,-6.91687 0.0275,-0.0902 1.41264,-125.10203 0.6018,-127.78318 z"
       id="path33"
       style="stroke-width:1.10018" />
    <path
       fill="#14385a"
       d="m 325.65103,503.17963 5.68906,2.20257 c 3.47658,1.95723 7.03348,3.83744 10.44075,5.90909 8.43952,5.15437 16.84933,11.03155 25.5485,15.68094 3.17513,2.26748 6.69682,4.51075 10.25152,6.11482 5.38211,3.06622 22.79363,11.70597 24.90599,17.71298 0.28715,0.81634 0.19803,2.00014 0.18483,2.84618 l -0.582,51.29392 c -0.0253,8.95001 -0.85814,19.27524 0.92526,28.00301 -6.4944,7.42955 -17.36642,10.88193 -26.34613,14.45753 q -4.92003,2.26858 -9.74104,4.7407 c -8.76407,4.00907 -17.60076,7.91033 -26.22731,12.20875 -2.81207,1.14419 -6.03671,2.76587 -9.13704,2.08485 -9.22945,-5.81337 -17.81749,-12.5036 -26.73999,-18.76145 -3.34896,-2.9848 -7.138,-5.41731 -10.84452,-7.93013 -8.59245,-6.27766 -17.06497,-12.73575 -26.00068,-18.52272 -2.15086,-2.60304 -6.79474,-4.95633 -9.58591,-7.24582 -2.17726,-6.5791 -1.2168,-72.69582 0.86915,-79.39154 2.45671,-3.04532 6.93006,-4.39084 10.43635,-5.9355 9.06223,-3.79564 17.92752,-8.37351 26.82141,-12.56741 3.5415,-1.23661 7.01148,-2.98151 10.44956,-4.49756 6.35027,-2.49302 12.28907,-5.9278 18.68224,-8.40321 z"
       id="path34"
       style="stroke-width:1.10018" />
    <path
       fill="#6f9bb9"
       d="m 326.34965,511.53993 q 22.84094,14.23199 46.00203,27.9359 c 6.91356,4.13559 13.82603,8.97091 20.98053,12.60482 0.626,1.45884 1.12109,2.67675 1.29052,4.27972 -0.80644,24.22717 0.25194,48.53576 0.24314,72.77723 -12.34848,7.59348 -25.64091,12.89747 -38.86404,18.73505 -7.24582,3.19934 -14.3046,6.92017 -21.70665,9.73664 -1.8329,-0.66451 -3.05741,-1.56226 -4.57567,-2.77027 -9.58371,-5.52513 -18.40609,-12.5124 -27.33079,-19.0288 Q 284.448,622.71802 266.19483,610.067 c 0.72393,-23.60777 0.51819,-47.22654 1.1838,-70.84091 l 3.39958,-1.43244 c 18.17945,-9.14694 36.76598,-18.49851 55.57144,-26.25372 z"
       id="path35"
       style="stroke-width:1.10018" />
    <path
       fill="#6f9bb9"
       d="m 394.62273,556.36037 c -0.80644,24.22717 0.25194,48.53576 0.24314,72.77723 -12.34848,7.59348 -25.64091,12.89747 -38.86404,18.73505 -7.24582,3.19934 -14.3046,6.92017 -21.70665,9.73664 -1.88351,-24.08525 -0.55669,-48.95933 -0.32785,-73.1491 10.93144,-4.93763 21.97179,-9.72013 32.78221,-14.91521 9.26026,-4.45024 18.32688,-9.35487 27.87319,-13.18461 z"
       id="path36"
       style="stroke-width:1.10018" />
    <path
       fill="#6f9bb9"
       d="m 326.34965,511.53993 q 22.84094,14.23199 46.00203,27.9359 c 6.91356,4.13559 13.82603,8.97091 20.98053,12.60482 -8.05115,3.24334 -15.82286,7.42625 -23.67268,11.15807 q -18.83517,8.9192 -37.82326,17.50835 c -19.42266,-15.53131 -40.75635,-28.61581 -61.05806,-42.95342 18.17945,-9.14694 36.76598,-18.49851 55.57144,-26.25372 z"
       id="path37"
       style="stroke-width:1.10018" />
    <path
       fill="#fdfefd"
       d="m 270.77821,537.79365 c 20.30171,14.33761 41.6354,27.42211 61.05806,42.95342 q 18.98809,-8.58915 37.82326,-17.50835 c 7.84982,-3.73182 15.62153,-7.91473 23.67268,-11.15807 0.626,1.45884 1.12109,2.67675 1.29052,4.27972 -9.54631,3.82974 -18.61293,8.73437 -27.87319,13.18461 -10.81042,5.19508 -21.85077,9.97758 -32.78221,14.91521 -0.22884,24.18977 -1.55566,49.06385 0.32785,73.1491 -1.8329,-0.66451 -3.05741,-1.56226 -4.57567,-2.77027 -0.25854,-9.01161 0.0814,-18.10794 0.0957,-27.12836 l -0.30145,-43.89958 C 309.30888,568.4338 286.7892,555.60014 267.37863,539.22609 Z"
       id="path38"
       style="stroke-width:1.10018" />
    <path
       fill="#add5e3"
       d="m 267.97823,621.22067 c 8.93571,5.78697 17.40823,12.24506 26.00068,18.52272 3.70652,2.51282 7.49556,4.94533 10.84452,7.93013 8.9225,6.25785 17.51054,12.94808 26.73999,18.76145 -1.96823,10.37805 -0.73162,21.89478 -0.69751,32.42795 0.0385,11.77968 -0.37187,23.56707 -0.24644,35.34455 0.066,6.24465 1.89231,20.35782 -0.72613,25.47698 -8.58144,-4.41504 -16.88123,-9.41868 -25.23494,-14.2474 -4.1477,-2.07825 -8.24038,-4.13229 -12.15154,-6.64071 -8.02695,-4.08279 -15.79096,-8.73877 -23.61547,-13.19672 l 0.0693,-62.85357 c 0.0209,-13.76991 0.68211,-27.84128 -0.98247,-41.52538 z"
       id="path39"
       style="stroke-width:1.10018" />
    <path
       fill="#add5e3"
       d="m 304.82343,647.67352 c 8.9225,6.25785 17.51054,12.94808 26.73999,18.76145 -1.96823,10.37805 -0.73162,21.89478 -0.69751,32.42795 0.0385,11.77968 -0.37187,23.56707 -0.24644,35.34455 0.066,6.24465 1.89231,20.35782 -0.72613,25.47698 -8.58144,-4.41504 -16.88123,-9.41868 -25.23494,-14.2474 q 0.20464,-30.42451 -0.0627,-60.84793 c -0.0902,-12.26816 -0.53249,-24.66614 0.22774,-36.9156 z"
       id="path40"
       style="stroke-width:1.10018" />
    <path
       fill="#90bfd4"
       d="m 293.97891,639.74339 c 3.70652,2.51282 7.49556,4.94533 10.84452,7.93013 -0.76023,12.24946 -0.31795,24.64744 -0.22774,36.9156 q 0.26735,30.42342 0.0627,60.84793 c -4.1477,-2.07825 -8.24038,-4.13229 -12.15154,-6.64071 2.13876,-8.8928 1.2223,-24.3658 1.28611,-33.84499 z"
       id="path41"
       style="stroke-width:1.10018" />
    <path
       fill="#90bfd4"
       d="m 258.39232,613.97485 c 2.79117,2.28949 7.43505,4.64278 9.58591,7.24582 1.66458,13.6841 1.00337,27.75547 0.98247,41.52538 l -0.0693,62.85357 c -4.1543,-2.29169 -8.23929,-4.62518 -12.24616,-7.16551 2.03534,-7.21501 0.74262,-19.32914 0.73492,-27.10745 l 0.15073,-39.89821 c 0.11552,-12.44749 1.00667,-25.03581 0.86144,-37.4536 z"
       id="path42"
       style="stroke-width:1.10018" />
    <path
       fill="#90bfd4"
       d="m 566.53983,506.89825 c 55.46802,-32.154 112.68094,-61.57625 169.15124,-91.94246 l 84.85946,-45.53005 c 14.33101,-7.7431 28.36937,-16.11111 42.93142,-23.40093 l -0.43017,324.97153 -5.83648,3.09592 c -7.95654,4.29732 -15.87897,8.98411 -24.00714,12.92937 -4.46785,2.78677 -9.19755,5.16537 -13.84693,7.63419 -8.3339,4.69449 -16.62049,9.5419 -25.15133,13.87003 q -6.51529,3.76373 -13.15051,7.31403 -12.97778,7.59237 -26.1712,14.80079 c -4.91342,3.0035 -9.90496,6.33156 -15.24746,8.50443 -1.10679,0.54679 -1.86041,0.91865 -3.10582,0.96046 -1.93523,-0.81304 -3.16523,-1.90002 -4.38754,-3.61851 -9.78615,-13.75121 -12.97118,-68.20927 -9.63872,-85.31384 3.76263,-19.30935 18.81646,-48.47525 35.35554,-59.65313 0.66341,-0.94176 1.59527,-1.52926 2.50402,-2.22458 l 0.91646,0.50829 c 1.8142,3.84955 3.82204,6.37777 7.96094,7.87842 3.55359,1.28832 7.7354,1.24101 11.43422,0.68982 3.93426,-1.51826 7.7354,-3.14103 11.52004,-4.99924 5.64174,-4.42494 10.45395,-9.17114 11.75437,-16.59629 0.50939,-2.90889 -0.45878,-5.75507 -2.25648,-8.04345 -2.28838,-2.91109 -6.40527,-4.56577 -9.99958,-4.93873 -14.48943,-1.50396 -28.24505,16.066 -38.63739,24.22937 -2.64705,2.63934 -5.37881,5.23028 -7.95214,7.93893 q -3.74503,4.42935 -7.1303,9.14034 -3.38637,4.70989 -6.39097,9.67063 -3.00571,4.96183 -5.61205,10.1437 -2.60744,5.18187 -4.799,10.55188 c -0.30696,-16.57869 0.35315,-33.01985 -1.1717,-49.56554 -1.02977,-4.48985 -1.64038,-11.53213 -4.70989,-15.12204 -0.94836,-1.10898 -1.53586,-1.24981 -2.9386,-1.38183 -1.7944,0.84164 -2.394,2.07385 -3.36436,3.69992 -3.71973,19.54259 -1.57767,39.11818 -2.39731,58.84119 -9.06442,-6.82884 -16.38505,-10.60688 -27.61574,-12.4915 -3.68672,0.12762 -7.38774,0.0253 -11.07556,-0.0187 l -7.03788,1.05838 c -4.78691,-2.82308 -8.85429,-3.88475 -14.38382,-2.44681 -8.07756,2.10025 -18.88578,10.22732 -22.94436,17.55125 -1.34663,2.42811 -2.13106,5.3711 -1.14309,8.07315 0.82734,2.26199 2.64484,3.45899 4.7693,4.37434 0.86585,0.37296 1.73059,0.63921 2.63934,0.88785 3.46779,-0.48408 6.94547,0.0517 10.42536,-0.66561 7.98184,-2.92319 15.20345,-7.23042 19.0761,-15.19136 1.54356,-3.17293 2.17837,-6.48449 2.71746,-9.93357 13.46626,2.84838 29.08889,8.09406 36.8529,20.43594 2.15636,3.42708 3.52279,7.28652 4.24231,11.25929 1.29052,7.1281 0.95166,14.73698 1.06168,21.9652 0.31025,20.15098 0.94836,40.94888 -4.02558,60.64549 -3.18173,12.60042 -9.02812,26.29222 -19.0387,35.01339 -4.12459,3.24664 -9.17774,5.3865 -13.88213,7.65948 l -25.15793,14.32991 c -5.27759,3.5261 -10.76531,7.20842 -16.58969,9.75534 -6.41298,3.5723 -12.79955,7.19411 -19.35886,10.49467 -4.21701,2.55023 -8.43071,5.03554 -12.78305,7.35253 -8.41971,5.73747 -17.76358,10.23172 -26.7862,14.94382 l -0.002,-314.67161 z"
       id="path43"
       style="stroke-width:1.10018" />
    <path
       fill="#90bfd4"
       d="m 662.02158,623.13829 c 13.46626,2.84838 29.08889,8.09406 36.8529,20.43594 2.15636,3.42708 3.52279,7.28652 4.24231,11.25929 1.29052,7.1281 0.95166,14.73698 1.06168,21.9652 0.31025,20.15098 0.94836,40.94888 -4.02558,60.64549 -3.18173,12.60042 -9.02812,26.29222 -19.0387,35.01339 -4.12459,3.24664 -9.17774,5.3865 -13.88213,7.65948 l -25.15793,14.32991 c -1.84611,-7.1347 -0.89995,-19.30274 -0.97037,-26.91492 q -0.30255,-37.22806 0.0913,-74.45392 c 0.0693,-11.07776 1.58537,-35.14101 -0.96706,-44.81493 7.98184,-2.92319 15.20345,-7.23042 19.0761,-15.19136 1.54356,-3.17293 2.17837,-6.48449 2.71746,-9.93357 z"
       id="path44"
       style="stroke-width:1.10018" />
    <path
       fill="#6f9bb9"
       d="m 667.74914,668.63644 c 3.60201,-2.56673 7.20401,-4.88152 10.6685,-7.67269 0.51598,10.6861 0.33445,21.43931 0.42027,32.13751 0.10231,12.5168 0.42247,25.0204 0.41037,37.54051 -0.011,10.78181 -0.37517,21.69564 0.25744,32.45985 0.18373,3.13113 0.13312,6.5307 1.60847,9.35598 -4.12459,3.24664 -9.17774,5.3865 -13.88213,7.65948 -0.26845,-15.93837 0.24864,-31.83055 0.40156,-47.76232 z"
       id="path45"
       style="stroke-width:1.10018" />
    <path
       fill="#14385a"
       d="m 667.74914,668.63644 q -1.71078,0.69422 -3.46558,1.26852 c -4.53496,1.45114 -10.19761,2.92649 -14.62476,0.44557 -2.11235,-1.1849 -3.83194,-3.52279 -4.46785,-5.85298 -1.11889,-4.09599 1.1783,-9.42419 3.29175,-12.91397 4.03438,-6.66712 11.45403,-12.11634 19.05081,-13.79082 4.36553,-0.96156 9.5562,-0.73383 13.32434,1.92312 2.09035,1.47315 3.45788,3.50849 3.84844,6.05102 0.86145,5.61644 -3.16633,10.93144 -6.28865,15.19685 -3.46449,2.79117 -7.06649,5.10596 -10.6685,7.67269 z"
       id="path46"
       style="stroke-width:1.10018" />
    <path
       fill="#6f9bb9"
       d="m 670.4391,644.90545 c 1.91212,0.0363 3.20593,0.26185 4.83531,1.28502 0.6304,1.30262 0.77673,1.84061 0.27835,3.24665 -2.20588,6.22484 -10.0656,11.22738 -15.77226,13.67419 -1.14529,0.0407 -2.43911,0.16723 -3.5723,0.0132 -1.54356,-0.21124 -2.19377,-0.80314 -3.16523,-1.94623 -0.36636,-1.51936 -0.23214,-2.52713 0.52039,-3.88585 3.49419,-6.30406 10.15361,-10.42646 16.87574,-12.38699 z"
       id="path47"
       style="stroke-width:1.10018" />
    <path
       fill="#90bfd4"
       d="m 760.36821,589.2955 0.91646,0.50829 c 1.8142,3.84955 3.82204,6.37777 7.96094,7.87842 3.55359,1.28832 7.7354,1.24101 11.43422,0.68982 3.93426,-1.51826 7.7354,-3.14103 11.52004,-4.99924 0.98136,11.69277 0.55229,23.64738 0.51818,35.38305 l -0.0352,52.77477 c 0.0198,7.63418 -0.86255,16.0561 -0.11332,23.57476 0.14962,1.50066 0.35756,2.11896 1.37853,3.22685 0.0737,0.0792 0.17383,0.12872 0.26184,0.19363 q -6.51529,3.76373 -13.15051,7.31403 -12.97778,7.59237 -26.1712,14.80079 c -4.91342,3.0035 -9.90496,6.33156 -15.24746,8.50443 -1.10679,0.54679 -1.86041,0.91865 -3.10582,0.96046 -1.93523,-0.81304 -3.16523,-1.90002 -4.38754,-3.61851 -9.78615,-13.75121 -12.97118,-68.20927 -9.63872,-85.31384 3.76263,-19.30935 18.81646,-48.47525 35.35554,-59.65313 0.66341,-0.94176 1.59527,-1.52926 2.50402,-2.22458 z"
       id="path48"
       style="stroke-width:1.10018" />
    <path
       fill="#6f9bb9"
       d="m 780.67983,598.37203 c 3.93426,-1.51826 7.7354,-3.14103 11.52004,-4.99924 0.98136,11.69277 0.55229,23.64738 0.51818,35.38305 l -0.0352,52.77477 c 0.0198,7.63418 -0.86255,16.0561 -0.11332,23.57476 0.14962,1.50066 0.35756,2.11896 1.37853,3.22685 0.0737,0.0792 0.17383,0.12872 0.26184,0.19363 q -6.51529,3.76373 -13.15051,7.31403 -0.32125,-39.30851 0.98687,-78.59611 c 0.22664,-7.53517 -0.65131,-15.15945 0.13642,-22.65061 0.0583,-4.24562 0.39827,-8.75087 0.0385,-12.97558 -0.14413,-1.68879 -0.21454,-2.17837 -1.54136,-3.24555 z"
       id="path49"
       style="stroke-width:1.10018" />
    <path
       fill="#6f9bb9"
       d="m 742.78726,639.09318 c 3.89025,2.49081 7.127,3.6042 11.75437,3.88805 -0.49398,11.81929 -1.8373,81.14414 0.34656,87.65944 -4.91342,3.0035 -9.90496,6.33156 -15.24746,8.50443 1.1673,-1.95833 1.72399,-3.62071 1.97703,-5.89149 1.24101,-11.09097 0.36526,-22.79474 0.44008,-33.96381 z"
       id="path50"
       style="stroke-width:1.10018" />
    <path
       fill="#14385a"
       d="m 752.90016,611.49614 c 5.99491,-3.09702 12.86336,-5.9047 19.6603,-3.64492 3.17734,1.05618 6.07413,3.37317 7.43285,6.47679 0.39607,0.90105 0.70962,1.83621 1.02868,2.76697 -0.68542,7.82341 -3.17734,12.90077 -9.32077,17.99902 -4.98604,4.1378 -10.87973,6.5021 -17.15959,7.88723 -4.62737,-0.28385 -7.86412,-1.39724 -11.75437,-3.88805 -1.52156,-2.85168 -2.46222,-5.3139 -2.21467,-8.60015 0.5919,-7.84762 6.70232,-14.10877 12.32757,-18.99689 z"
       id="path51"
       style="stroke-width:1.10018" />
    <path
       fill="#6f9bb9"
       d="m 764.48621,615.24007 c 2.03974,0.0759 4.92993,0.16502 6.59231,1.50395 0.69201,0.55779 1.16069,1.23331 1.26411,2.11235 0.26844,2.26969 -1.30812,4.41395 -2.70976,6.05762 -4.49645,5.27099 -10.48036,7.87073 -17.2597,8.49673 -1.92532,-0.0858 -4.05088,-0.13422 -5.90029,-0.71732 -1.36753,-0.43127 -2.12116,-1.15519 -2.80547,-2.3995 -0.10562,-1.08259 -0.0506,-1.59307 0.43237,-2.60524 2.94629,-6.17864 14.09227,-10.79612 20.38643,-12.44859 z"
       id="path52"
       style="stroke-width:1.10018" />
    <path
       fill="#6f9bb9"
       d="m 629.80266,648.92883 c 3.46779,-0.48408 6.94547,0.0517 10.42536,-0.66561 2.55243,9.67392 1.03637,33.73717 0.96706,44.81493 q -0.39387,37.22806 -0.0913,74.45392 c 0.0704,7.61218 -0.87574,19.78022 0.97037,26.91492 -5.27759,3.5261 -10.76531,7.20842 -16.58969,9.75534 0.89555,-1.51495 2.75156,-2.59423 3.40067,-4.1675 0.78993,-1.91322 2.19377,-148.16851 0.91755,-151.106 z"
       id="path53"
       style="stroke-width:1.10018" />
    <path
       fill="#14385a"
       d="m 667.462,555.04125 c 4.30392,-3.32586 7.90262,-4.17631 13.19561,-4.55587 7.44275,2.70645 12.86557,6.73203 16.18923,14.16818 3.76923,8.43512 4.03107,19.77693 0.66341,28.38477 -1.97373,5.04545 -5.48222,9.21515 -10.53537,11.35611 -2.42811,1.02868 -5.03335,1.31142 -7.64519,1.33123 -4.48875,-2.76367 -7.7079,-6.04662 -11.14597,-10.00949 -2.28399,-4.1994 -4.28302,-8.52093 -5.47782,-13.16701 -2.56344,-9.97318 -0.44448,-18.86047 4.7561,-27.50792 z"
       id="path54"
       style="stroke-width:1.10018" />
    <path
       fill="#6f9bb9"
       d="m 675.96092,558.25709 c 2.65255,0.55009 4.86502,1.14969 7.06649,2.78676 4.57567,3.40288 6.73533,8.83229 7.44495,14.33541 1.08039,8.38451 -0.72502,15.66004 -5.92889,22.32166 -3.12673,-0.0594 -5.3546,-1.41154 -7.51537,-3.60201 -4.83971,-4.90682 -6.85965,-13.15381 -6.91356,-19.90234 -0.0506,-6.34477 1.38733,-11.38582 5.84638,-15.93948 z"
       id="path55"
       style="stroke-width:1.10018" />
    <path
       fill="#14385a"
       d="m 755.29636,523.20959 c 3.23014,1.41704 5.06415,3.48539 6.30186,6.80135 3.93206,10.53537 -1.10899,26.7708 -5.83428,36.36111 q -0.73492,1.48195 -1.55676,2.91769 c -3.74173,5.06415 -7.95764,9.58041 -12.4552,13.97675 -1.78229,1.05948 -3.45568,2.19267 -5.56693,2.3918 -1.7944,0.16833 -3.59651,-0.615 -4.85512,-1.86151 -3.71752,-3.68232 -4.47335,-11.54864 -4.55696,-16.60399 -0.26295,-15.75685 7.20621,-27.13716 17.79109,-38.10931 3.40727,-2.4039 6.92786,-4.195 10.7323,-5.87389 z"
       id="path56"
       style="stroke-width:1.10018" />
    <path
       fill="#6f9bb9"
       d="m 752.72193,532.45445 c 1.95173,2.49962 1.97923,7.01148 1.7614,10.02708 -0.96597,13.43106 -8.82679,25.15023 -18.60963,33.82189 l -0.77673,-0.37406 c -1.1904,-4.80121 -1.30482,-10.49027 -0.63151,-15.40039 1.62167,-11.82809 8.9467,-21.08725 18.25647,-28.07452 z"
       id="path57"
       style="stroke-width:1.10018" />
    <path
       fill="#14385a"
       d="m 718.42146,495.55204 c 5.75287,3.08932 9.12274,7.78051 11.02826,13.99546 3.08712,10.07329 1.75699,21.84307 -3.25435,31.07472 -1.89122,3.48209 -4.27422,6.5109 -7.09619,9.29106 -2.52823,1.61948 -5.00034,2.9452 -8.09847,2.26308 -1.64147,-0.36086 -3.04421,-1.17829 -4.42934,-2.09145 -3.70982,-4.70439 -6.48229,-9.84335 -7.84762,-15.70404 -2.86928,-12.31437 0.17933,-23.47244 6.77604,-33.9374 4.08499,-3.69552 7.57807,-4.63398 12.92167,-4.89143 z"
       id="path58"
       style="stroke-width:1.10018" />
    <path
       fill="#6f9bb9"
       d="m 714.31557,503.16972 c 1.02757,0.37737 1.90882,0.83284 2.72186,1.57547 4.03328,3.69002 5.20497,8.98521 5.41401,14.23199 0.37736,9.5012 -2.32799,18.21356 -8.78828,25.28115 -1.1772,-0.41147 -2.31919,-0.92965 -3.28405,-1.73499 -3.47988,-2.90339 -4.7385,-7.21501 -5.14006,-11.56734 -0.98137,-10.64429 2.32029,-19.66581 9.07652,-27.78628 z"
       id="path59"
       style="stroke-width:1.10018" />
    <path
       fill="#14385a"
       d="m 793.04371,506.36796 c 2.34339,-0.50388 4.1851,-0.72612 6.25895,0.69642 2.78127,1.90772 3.82534,5.98941 4.24451,9.13374 1.66458,12.47169 -3.80444,25.54519 -11.50023,35.1102 -3.94086,4.89802 -10.92044,12.39688 -17.48084,13.09 -1.7955,0.19033 -3.33466,-0.23874 -4.7935,-1.32902 -3.25435,-2.43251 -4.02338,-8.20848 -4.23132,-11.95351 -0.72062,-12.97669 6.31837,-26.61788 15.13195,-35.79012 0.20573,-0.21234 0.42357,-0.41367 0.6348,-0.62051 3.70763,-3.11792 7.6826,-5.70335 11.73568,-8.3372 z"
       id="path60"
       style="stroke-width:1.10018" />
    <path
       fill="#6f9bb9"
       d="m 793.69722,516.03089 0.69862,0.51268 c 1.43134,3.02221 0.96266,6.5329 0.48078,9.75314 -1.90002,12.72694 -10.1151,22.24794 -20.13229,29.64779 -0.32345,-0.32126 -0.46318,-0.42797 -0.72172,-0.86915 -1.60187,-2.74276 -1.41484,-6.24025 -0.82074,-9.24815 2.3698,-12.00852 10.48586,-23.06428 20.49535,-29.79631 z"
       id="path61"
       style="stroke-width:1.10018" />
    <path
       fill="#14385a"
       d="m 633.0097,565.14974 c 3.80224,0.20574 7.29533,1.06058 10.85223,2.40171 3.5646,2.52492 6.72873,5.18737 9.22945,8.82348 4.72309,6.86736 6.85195,14.45533 5.23468,22.76613 -0.95276,4.89142 -3.50079,10.26362 -7.89933,12.93817 -2.61404,1.59087 -5.67475,1.98584 -8.62325,1.20031 -6.43168,-1.71409 -12.11414,-7.64409 -15.18255,-13.35405 -3.68782,-6.86185 -6.03782,-16.6755 -3.61521,-24.25248 1.74269,-5.44811 5.14887,-8.07315 10.00398,-10.52327 z"
       id="path62"
       style="stroke-width:1.10018" />
    <path
       fill="#6f9bb9"
       d="m 633.15053,573.16459 c 2.45011,0.13202 4.51076,0.32016 6.70782,1.49955 4.79131,2.57224 7.88063,7.22602 9.43189,12.34518 2.01554,6.65502 1.15629,11.97771 -1.96493,18.00343 l -1.30482,0.67111 c -1.70309,0.0242 -3.36987,-0.0737 -4.86942,-0.98247 -4.85291,-2.94079 -8.42191,-11.37371 -9.63542,-16.77342 -1.1904,-5.29519 -1.29052,-10.06889 1.63488,-14.76338 z"
       id="path63"
       style="stroke-width:1.10018" />
    <path
       fill="url(#gradient_1)"
       d="m 895.55564,284.7489 c 1.59967,-0.86144 4.09379,-2.68995 5.93,-2.3797 1.11889,1.44345 0.68981,3.65262 0.72392,5.39971 0.22114,6.86406 -0.0847,13.73911 -0.0286,20.60647 l 0.17493,84.68013 0.19803,302.23401 c -56.44499,27.49913 -110.68741,59.01943 -165.3457,89.83891 q -84.89467,47.82614 -170.58478,94.21324 l -0.0231,-31.65893 c 8.26019,-6.89926 18.87147,-11.52663 28.32316,-16.60619 q 13.6599,-7.45815 27.23068,-15.07693 L 797.1408,718.3351 q 22.67921,-12.74564 45.49485,-25.24815 c 7.22491,-3.88805 14.9185,-7.1754 21.92778,-11.40341 3.23124,-1.94733 5.82878,-3.92656 8.21838,-6.90696 1.65908,-13.69621 0.45108,-28.05032 0.32016,-41.83784 l -0.13533,-66.50838 0.50829,-236.38244 c -10.04249,4.31272 -19.43367,10.39895 -29.07349,15.55331 L 775.44845,382.8447 Q 670.41049,438.33583 566.57613,496.04933 c -0.0649,-11.23729 0.0902,-22.48008 0.16613,-33.71627 Q 730.35957,372.07829 895.55564,284.7489 Z"
       id="path64"
       style="fill:url(#gradient_1);stroke-width:1.10018" />
    <path
       fill="#add5e3"
       d="m 895.55564,284.7489 c 1.59967,-0.86144 4.09379,-2.68995 5.93,-2.3797 1.11889,1.44345 0.68981,3.65262 0.72392,5.39971 -2.11786,-1.65028 -4.23571,-2.02764 -6.65392,-3.02001 z"
       id="path65"
       style="stroke-width:1.10018" />
    <path
       fill="#14385a"
       d="m 884.0026,302.10652 c 1.32682,-0.066 2.73176,-0.14192 4.05088,0.0451 1.37303,0.19363 3.07942,1.14089 3.84845,2.33899 0.90325,1.40934 1.11559,2.82418 0.82954,4.44035 -0.62381,3.51619 -2.74166,5.40081 -5.47342,7.45925 -2.52493,0.0649 -4.86942,-0.23874 -6.71113,-2.15526 -1.31142,-1.36313 -1.67008,-3.14103 -1.48745,-4.96403 0.35646,-3.5624 2.25538,-5.06856 4.94313,-7.16441 z"
       id="path66"
       style="stroke-width:1.10018" />
    <path
       fill="url(#gradient_2)"
       d="m 142.81679,281.37244 c 10.02379,2.33679 39.18859,19.55138 50.35877,25.55619 l 137.91148,75.35387 128.62923,70.1808 29.62578,16.20352 c 8.28879,4.43265 16.90984,8.3152 24.3614,14.11648 0.27284,10.95014 1.2091,22.46797 -1.20471,33.21128 -11.333,-4.44035 -21.93438,-11.93701 -32.27942,-18.26417 q -14.2727,-8.58914 -28.91066,-16.53798 L 270.30733,381.92054 c -26.92483,-15.59952 -54.94324,-29.44755 -82.0342,-44.81603 -3.67681,-2.08595 -14.06916,-9.19205 -18.08924,-8.08196 -2.46881,2.91549 -2.65364,7.1369 -2.83957,10.81262 -0.5886,11.65756 0.25964,23.44824 0.28274,35.1256 l 0.0143,78.98668 -0.0704,251.88405 c -8.08746,-5.10706 -16.47417,-9.81475 -24.71345,-14.67757 -0.96816,-36.23459 -0.47198,-72.5539 -0.45988,-108.80169 l 0.0682,-177.8592 -0.002,-84.38749 c -0.0209,-12.57622 -1.69758,-26.30762 0.35316,-38.73311 z"
       id="path67"
       style="fill:url(#gradient_2);stroke-width:1.10018" />
    <path
       fill="#14385a"
       d="m 154.1586,298.72895 c 2.64594,-0.066 4.92663,0.21014 7.00488,2.01994 1.39283,1.21351 2.21907,2.83408 2.28508,4.68459 0.10342,2.90999 -1.16179,4.51626 -3.03431,6.59121 -2.56233,0.0979 -4.63508,-0.0286 -6.74743,-1.67338 q -0.27065,-0.20684 -0.51819,-0.44228 -0.24644,-0.23434 -0.46758,-0.49398 -0.22004,-0.26074 -0.41147,-0.54239 -0.19143,-0.28165 -0.35206,-0.5831 -0.15952,-0.30035 -0.28715,-0.6172 -0.12762,-0.31575 -0.22003,-0.64471 -0.0924,-0.32786 -0.14963,-0.66341 -0.0561,-0.33666 -0.077,-0.67662 c -0.20904,-2.95619 1.15959,-4.7924 2.9749,-6.95867 z"
       id="path68"
       style="stroke-width:1.10018" />
    <path
       fill="#14385a"
       d="m 493.95733,484.73283 c 2.83297,-0.10562 4.98823,0.044 7.27222,1.91542 1.46875,1.2036 2.3698,2.80547 2.47541,4.71209 0.15843,2.85168 -1.2014,4.58227 -2.9749,6.64842 -2.3951,0.0506 -4.61747,-0.5644 -6.5571,-2.00454 -1.52155,-1.13099 -2.54253,-2.75156 -2.79777,-4.63948 -0.39166,-2.88578 0.86365,-4.50526 2.58214,-6.63191 z"
       id="path69"
       style="stroke-width:1.10018" />
    <path
       fill="#6f9bb9"
       d="m 142.30411,703.84126 c 4.93103,2.11786 9.64862,5.11256 14.36181,7.7046 l 24.93019,13.62579 84.4711,46.92399 c 82.87254,45.8403 166.5416,90.57822 248.12252,138.66951 0.16833,11.34621 0.48958,22.70452 0.0671,34.04852 -5.02565,-3.40067 -10.61019,-6.10382 -15.92518,-9.03142 l -27.31209,-15.09453 -90.9809,-50.15964 -146.9319,-81.27286 c -30.3607,-16.86803 -60.46396,-34.28506 -91.24164,-50.38187 q -0.0726,-17.52044 0.43898,-35.03209 z"
       id="path70"
       style="stroke-width:1.10018" />
    <path
       fill="#14385a"
       d="m 153.46548,720.54977 c 2.22678,0.74042 4.10149,1.50725 5.86069,3.10582 1.59637,1.45005 2.72296,3.26095 2.70315,5.47342 -0.0231,2.57113 -1.43684,3.84625 -3.14103,5.55484 -2.25097,-0.89005 -4.27751,-1.83181 -6.11152,-3.44908 -1.53806,-1.35653 -2.77907,-3.07722 -2.74276,-5.22258 0.044,-2.55793 1.68108,-3.88695 3.43147,-5.46242 z"
       id="path71"
       style="stroke-width:1.10018" />
    <path
       fill="#14385a"
       d="m 495.6153,914.15042 q 0.12653,-0.0253 0.25415,-0.0451 0.12872,-0.0198 0.25744,-0.033 0.12872,-0.0132 0.25744,-0.0198 0.12983,-0.008 0.25855,-0.009 0.12982,0 0.25854,0.004 0.12982,0.005 0.25854,0.0176 0.12873,0.011 0.25635,0.0297 0.12872,0.0176 0.25524,0.0407 0.12762,0.0242 0.25304,0.055 0.12652,0.0297 0.25085,0.066 0.12432,0.0352 0.24644,0.0781 0.12212,0.0418 0.24204,0.0891 0.11992,0.0484 0.23764,0.10232 0.11882,0.0528 0.23324,0.11222 0.11552,0.0594 0.22663,0.12432 0.11222,0.0638 0.22114,0.13422 0.10892,0.0704 0.21454,0.14523 0.10452,0.0748 0.20683,0.15512 0.10122,0.0803 0.19914,0.16503 0.0968,0.0858 0.19033,0.17493 0.0935,0.0891 0.18263,0.18373 0.0891,0.0935 0.17273,0.19143 0.0847,0.099 0.16393,0.20024 0.0792,0.10232 0.15402,0.20793 0.0748,0.10672 0.14413,0.21564 0.0693,0.10892 0.13312,0.22114 0.0638,0.11332 0.12212,0.22884 0.0583,0.11551 0.11112,0.23323 0.0528,0.11772 0.10011,0.23874 0.0473,0.11992 0.088,0.24315 0.0407,0.12212 0.0759,0.24644 0.0352,0.12432 0.0649,0.25084 0.0297,0.12652 0.0528,0.25304 0.0231,0.12762 0.0396,0.25634 0.0165,0.12763 0.0275,0.25635 0.011,0.12982 0.0154,0.25854 0.004,0.12982 0.002,0.25854 -0.001,0.12983 -0.01,0.25855 -0.008,0.12982 -0.022,0.25854 -0.0143,0.12762 -0.0341,0.25524 -0.0209,0.12873 -0.0473,0.25525 -0.0264,0.12652 -0.0594,0.25194 -0.0319,0.12432 -0.0704,0.24864 -0.0385,0.12322 -0.0836,0.24424 -0.044,0.12212 -0.0946,0.24094 -0.0506,0.11882 -0.10561,0.23544 -0.0561,0.11662 -0.11772,0.23104 -0.0616,0.11332 -0.12872,0.22444 -0.0671,0.11112 -0.13973,0.21784 -0.0715,0.10781 -0.14852,0.21123 -0.0781,0.10342 -0.15953,0.20354 -0.0825,0.10011 -0.16943,0.19583 -0.0869,0.0957 -0.17823,0.18703 -0.0913,0.0924 -0.18703,0.17933 -0.0957,0.0869 -0.19583,0.16943 -0.10012,0.0814 -0.20354,0.15953 -0.10341,0.077 -0.21123,0.14962 -0.10672,0.0715 -0.21784,0.13862 -0.11112,0.0671 -0.22444,0.12873 -0.11332,0.0616 -0.22994,0.11772 -0.11662,0.0561 -0.23654,0.10671 -0.11882,0.0506 -0.23984,0.0946 -0.12212,0.0451 -0.24534,0.0836 -0.12322,0.0385 -0.24864,0.0715 -0.34656,0.0902 -0.70192,0.13422 -0.35536,0.0429 -0.71292,0.0396 -0.35756,-0.004 -0.71182,-0.0561 -0.35426,-0.0506 -0.69861,-0.14852 -0.34436,-0.099 -0.67222,-0.24094 -0.32785,-0.14302 -0.6337,-0.32786 -0.30695,-0.18593 -0.5853,-0.41036 -0.27945,-0.22334 -0.52589,-0.48299 -0.24644,-0.25964 -0.45658,-0.54899 -0.21013,-0.29045 -0.38066,-0.6051 -0.16943,-0.31575 -0.29595,-0.65021 -0.12652,-0.33446 -0.20684,-0.68321 -0.0803,-0.34986 -0.11441,-0.70522 -0.0341,-0.35646 -0.0198,-0.71402 0.0143,-0.35866 0.0748,-0.71072 0.0616,-0.35316 0.16943,-0.69422 0.10782,-0.34106 0.25965,-0.66561 0.15182,-0.32346 0.34545,-0.62491 0.19364,-0.30145 0.42578,-0.57319 0.23214,-0.27285 0.49838,-0.51269 0.26625,-0.23874 0.56109,-0.44117 0.29595,-0.20134 0.61611,-0.36306 0.31905,-0.16063 0.65791,-0.27725 0.33776,-0.11662 0.68871,-0.18813 z"
       id="path72"
       style="stroke-width:1.10018" />
    <path
       fill="#6f9bb9"
       d="m 530.94114,911.01709 c 10.55628,-7.95764 23.38113,-13.73691 34.95618,-20.14549 l 64.8592,-36.01785 171.70147,-95.82611 c 32.80972,-17.98032 66.42807,-34.59862 98.86922,-53.22255 0.61281,11.2978 0.34106,22.51749 0.13973,33.82409 -14.73698,9.14474 -30.36291,16.48077 -45.67748,24.56933 q -29.91183,16.0803 -59.60252,32.57097 l -153.74865,85.81883 c -35.36655,19.72302 -71.08845,38.81123 -106.03803,59.25376 -1.36203,0.79654 -3.65481,2.61404 -5.12796,2.40941 l -0.26845,-0.62271 c -1.7812,-8.63975 -1.55236,-23.84871 -0.0627,-32.61168 z"
       id="path73"
       style="stroke-width:1.10018" />
    <path
       fill="#14385a"
       d="m 886.3581,721.78858 c 2.34119,0.0627 4.22031,0.89445 6.26995,1.95723 l 0.24534,0.78113 c -2.64154,2.51062 -7.67709,1.73279 -10.05459,4.67579 2.52162,1.66017 6.28976,-0.20794 9.28006,1.92092 0.30255,0.73272 0.66671,1.2179 0.53469,2.03424 -0.56659,3.51839 -4.59767,6.28866 -7.36134,8.08856 -1.72729,0.65681 -2.9837,0.91315 -4.83531,0.94286 l -1.29272,-1.35323 c 1.94073,-3.14873 7.53847,-3.558 8.68046,-6.92346 -2.3907,-1.36973 -6.24025,1.00117 -9.11283,-0.29155 -0.77453,-0.34766 -0.67991,-0.78883 -0.90655,-1.52266 1.16069,-4.35013 5.27538,-7.47025 8.55284,-10.30983 z"
       id="path74"
       style="stroke-width:1.10018" />
    <path
       fill="#14385a"
       d="m 545.02021,914.83583 c 2.21577,0.0693 4.54927,0.18924 6.20614,1.88792 1.04298,1.06718 1.55236,2.11346 1.48085,3.63391 -0.11772,2.51282 -1.65578,3.83965 -3.33466,5.48112 -2.3841,-0.32785 -4.7759,-0.85924 -6.29086,-2.94189 -0.92635,-1.27182 -1.28391,-2.50402 -1.02097,-4.07839 0.30475,-1.83401 1.63928,-2.84948 2.9595,-3.98267 z"
       id="path75"
       style="stroke-width:1.10018" />
    <path
       fill="url(#gradient_3)"
       d="m 556.35762,513.33873 0.77783,0.33006 c 0.81743,1.96823 0.66671,4.24011 0.71292,6.34147 0.27064,12.29456 -0.0418,24.64854 -0.0495,36.94971 l 0.022,74.73666 0.18813,252.83571 q -13.52237,7.08409 -26.38243,15.31127 l -0.39167,0.0176 c -1.00997,-1.05838 -0.82844,-1.51606 -0.96266,-2.9463 -1.45774,-15.51151 -0.52149,-31.79755 -0.40597,-47.38717 l -0.022,-68.76926 -0.23764,-252.47264 q 13.42116,-7.39105 26.751,-14.94712 z"
       id="path76"
       style="fill:url(#gradient_3);stroke-width:1.10018" />
    <path
       fill="url(#gradient_4)"
       d="m 487.71378,512.23305 c 7.32943,3.06841 18.4347,10.95344 26.02817,15.12204 1.08808,78.05592 0.43458,156.19216 0.54569,234.26018 l 0.21234,82.24103 c 0.10012,18.4556 0.66671,36.98822 -0.26625,55.42512 q -13.77541,-7.1259 -26.93912,-15.32888 z"
       id="path78"
       style="fill:url(#gradient_4);stroke-width:1.10018" />
    <path
       fill="#add5e3"
       d="m 193.69265,694.75923 c 13.39255,6.30847 25.93026,14.19789 38.81452,21.45691 l 63.08461,35.20702 q 91.82363,50.03311 182.37986,102.326 l 0.0187,25.19534 c -3.53929,-1.74489 -6.96527,-3.83084 -10.40665,-5.76827 -25.66731,-14.8536 -51.7472,-29.04928 -77.57404,-43.62343 -36.63286,-20.67138 -73.137,-41.6101 -110.01189,-61.8447 -34.78125,-19.08711 -70.33153,-37.19946 -104.51538,-57.30424 5.70666,-5.68245 11.61576,-10.99634 18.21027,-15.64463 z"
       id="path79"
       style="stroke-width:1.10018" />
    <path
       fill="url(#gradient_5)"
       d="m 177.07545,341.69778 12.08883,6.88056 -0.32345,214.70659 c -0.0946,41.049 -0.52479,82.14201 -0.16173,123.18661 q -5.72426,5.27209 -11.71037,10.24492 l -0.44227,-191.87885 0.0374,-56.11714 c -0.0792,-12.05033 -0.66121,-24.4054 0.0825,-36.42932 -0.33116,-11.71807 -0.12322,-23.50215 -0.003,-35.22353 0.73052,-11.75217 0.0649,-23.58796 0.43237,-35.36984 z"
       id="path80"
       style="fill:url(#gradient_5);stroke-width:1.10018" />
    <path
       fill="#add5e3"
       d="m 176.64308,377.06762 c 1.45554,-0.56549 1.63707,-0.72172 3.13333,-0.36526 1.56666,3.93096 0.78003,38.6363 0.90985,45.69178 -0.94506,1.28612 -1.34333,2.18607 -2.82858,2.82308 -2.01664,-3.23124 1.05728,-10.38465 -1.2113,-12.92607 -0.33116,-11.71807 -0.12322,-23.50215 -0.003,-35.22353 z"
       id="path81"
       style="stroke-width:1.10018" />
    <path
       fill="#90bfd4"
       d="m 557.04523,467.65795 c 2.9584,4.40294 0.99237,28.33857 0.76243,34.23996 -8.78718,5.16867 -17.50394,10.35494 -26.66848,14.8382 -3.23675,-9.28557 -1.33013,-24.52203 -1.00227,-34.60962 q 13.6687,-6.83435 26.90832,-14.46854 z"
       id="path82"
       style="stroke-width:1.10018" />
    <path
       fill="#14385a"
       d="m 543.7473,485.13769 c 1.88461,0.12212 3.95186,0.93956 5.09385,2.50402 0.85265,1.1673 1.01767,2.62835 0.75583,4.01458 -0.64251,3.39737 -2.50732,5.04985 -5.26439,6.90696 l -0.28934,-0.11772 c -1.61838,-0.63811 -3.24225,-1.1915 -4.42495,-2.53373 -1.16509,-1.32022 -1.53586,-2.78016 -1.29161,-4.50195 0.41917,-2.9661 3.12342,-4.79681 5.42061,-6.27216 z"
       id="path83"
       style="stroke-width:1.10018" />
    <path
       fill="#6f9bb9"
       d="m 760.36821,589.2955 c 6.70233,-5.9652 19.04421,-18.21576 28.79625,-18.01883 1.73279,0.0352 3.28295,0.69532 4.41614,2.04415 1.11669,1.32792 1.48525,2.81537 1.13869,4.49205 -0.79763,3.86275 -4.63838,7.83772 -7.93453,9.76525 -10.80272,6.31616 -19.70542,-0.13313 -25.50009,2.22567 z"
       id="path84"
       style="stroke-width:1.10018" />
    <path
       fill="#6f9bb9"
       d="m 650.01966,625.12303 c 1.69429,0.0385 2.14756,-0.0418 3.62731,0.88235 0.25415,1.42253 0.23214,2.09255 -0.46208,3.39517 -3.68782,6.91906 -10.80491,10.1074 -17.82409,12.47719 -2.02984,-0.14962 -3.07612,-0.27394 -4.51406,-1.72619 -0.10892,-1.48635 -0.0242,-2.11565 0.83284,-3.36876 3.75053,-5.47782 12.03052,-10.15361 18.34008,-11.65976 z"
       id="path85"
       style="stroke-width:1.10018" />
    <path
       fill="#14385a"
       d="m 944.02979,689.04817 c 0.18813,0.0297 0.37846,0.0517 0.5655,0.0913 1.38293,0.28935 2.27958,0.78443 2.9925,2.01444 3.25215,5.61314 1.08148,19.14762 -0.71622,25.19643 -0.55559,-0.21123 -0.87795,-0.31465 -1.37963,-0.55999 -1.41814,-0.69422 -2.23338,-1.93853 -2.71196,-3.39517 -1.97043,-6.00041 -1.73609,-17.87581 1.24981,-23.34703 z"
       id="path86"
       style="stroke-width:1.10018" />
    <path
       fill="#14385a"
       d="m 943.80865,496.41789 c 1.49185,0.34986 2.46772,0.34326 3.48539,1.63707 3.93316,5.00255 0.68101,18.93089 -0.50608,24.53413 -0.34656,-0.0869 -0.69642,-0.15843 -1.03858,-0.25854 -1.32902,-0.38947 -2.11566,-1.32793 -2.68555,-2.54473 -2.78127,-5.9267 -1.33783,-17.33342 0.74482,-23.36793 z"
       id="path87"
       style="stroke-width:1.10018" />
    <path
       fill="#14385a"
       d="m 944.45556,612.24316 c 0.5908,0.22664 1.07488,0.38837 1.63378,0.71292 1.35102,0.78663 1.87911,2.30599 2.24217,3.73953 1.53696,6.06752 1.29712,16.10781 -1.8164,21.57023 -0.19363,-0.11002 -0.39277,-0.21124 -0.5809,-0.33006 -2.24658,-1.41044 -2.9837,-3.07832 -3.52609,-5.57244 -1.30482,-6.0026 -1.2058,-14.82609 2.04744,-20.12018 z"
       id="path88"
       style="stroke-width:1.10018" />
    <path
       fill="#14385a"
       d="m 97.455072,496.00202 c 1.14749,0.44778 2.51392,0.89005 3.285148,1.90882 3.82864,5.05535 1.55126,18.68224 0.10672,24.32949 -0.38177,-0.10672 -0.73053,-0.19473 -1.101288,-0.35426 -1.64147,-0.70412 -2.45451,-1.48085 -3.01891,-3.18503 -1.7944,-5.41731 -1.87361,-17.73719 0.72833,-22.69902 z"
       id="path89"
       style="stroke-width:1.10018" />
    <path
       fill="#14385a"
       d="m 265.9594,854.63921 c 0.53579,0.0539 1.06938,0.12983 1.59856,0.22554 5.43052,0.98357 15.52141,5.43602 18.37969,10.33954 0.95276,1.63487 0.45988,3.09812 0.0649,4.81991 -6.01471,-1.33893 -14.55764,-5.19617 -18.58322,-9.95447 -1.56006,-1.84391 -1.66458,-3.06512 -1.45994,-5.43052 z"
       id="path90"
       style="stroke-width:1.10018" />
    <path
       fill="#14385a"
       d="m 775.70259,158.32005 c 6.29966,0.23214 14.07907,3.87155 18.67014,8.15347 2.22127,2.07165 2.67235,3.53159 2.72516,6.49879 -5.66155,-0.26844 -12.35508,-3.64931 -16.80313,-7.11819 -2.96829,-2.31479 -4.11689,-3.79674 -4.59217,-7.53407 z"
       id="path91"
       style="stroke-width:1.10018" />
    <path
       fill="#14385a"
       d="m 96.896172,689.06468 c 0.15843,0.0143 0.31686,0.0242 0.47528,0.0429 1.7933,0.21014 2.776868,0.35976 3.848448,1.90112 3.06181,4.40734 1.09578,18.96609 -0.45108,23.7783 -1.402728,-0.29375 -2.167358,-0.40047 -3.256538,-1.40273 -2.76917,-5.39641 -2.21028,-18.35989 -0.61611,-24.31959 z"
       id="path92"
       style="stroke-width:1.10018" />
    <path
       fill="#14385a"
       d="m 944.0815,458.16666 c 0.47858,0.13422 1.37413,0.36746 1.8021,0.57099 1.23551,0.5864 1.7757,1.62608 2.17837,2.87369 1.95833,6.05982 0.97256,15.43339 -1.68438,21.14225 -0.5974,-0.18263 -1.11669,-0.31795 -1.68549,-0.5996 -1.58646,-0.78223 -2.19597,-2.63494 -2.56893,-4.23791 -1.25311,-5.3777 -1.04187,-15.08574 1.95833,-19.74942 z"
       id="path93"
       style="stroke-width:1.10018" />
    <path
       fill="#14385a"
       d="m 100.21983,265.0831 c 1.69429,0.31245 2.92649,0.45547 4.25772,1.65798 1.39503,2.82087 -2.52383,19.13661 -3.35447,22.95646 -0.45107,-0.0506 -0.98466,-0.0924 -1.413728,-0.23214 -1.41154,-0.46098 -2.22568,-1.13979 -2.88799,-2.45672 -2.60634,-5.17637 1.40604,-16.83833 3.398468,-21.92558 z"
       id="path94"
       style="stroke-width:1.10018" />
    <path
       fill="#14385a"
       d="m 169.20143,802.05257 c 0.55119,-0.005 1.10348,-0.0154 1.65468,0.007 5.75616,0.22444 13.7006,4.70549 17.40932,8.94561 1.60187,1.83181 1.46985,3.11242 1.26632,5.3788 -0.0825,-0.01 -0.16503,-0.0198 -0.24645,-0.0286 -5.9905,-0.63921 -14.37061,-4.69229 -18.41489,-9.17004 -1.50065,-1.66238 -1.72619,-2.9496 -1.66898,-5.13237 z"
       id="path95"
       style="stroke-width:1.10018" />
    <path
       fill="#14385a"
       d="m 637.68989,81.333511 c 5.90689,1.08918 15.36408,5.3645 19.22023,10.1624 1.41154,1.7548 1.33893,2.97491 1.08258,5.06526 -0.20133,-0.009 -0.40376,-0.009 -0.604,-0.0264 -5.85738,-0.51708 -15.06153,-5.29959 -18.76035,-9.90716 -1.45005,-1.80541 -1.2025,-3.14983 -0.93846,-5.29409 z"
       id="path96"
       style="stroke-width:1.10018" />
    <path
       fill="#14385a"
       d="m 602.61159,62.482941 c 6.23145,1.09578 14.57085,4.51736 18.73395,9.45279 1.52156,1.8043 1.22341,3.11572 1.03088,5.29849 -0.5655,-0.0352 -1.1332,-0.0561 -1.69649,-0.12432 -5.19287,-0.63041 -14.57635,-5.55814 -17.44783,-9.83676 -1.10349,-1.64477 -0.87465,-2.95069 -0.62051,-4.7902 z"
       id="path97"
       style="stroke-width:1.10018" />
    <path
       fill="#14385a"
       d="m 944.30044,728.75605 c 0.6161,0.13092 1.35432,0.25744 1.92532,0.52479 1.28612,0.6007 1.93743,2.16956 2.23998,3.46778 1.43244,6.14013 -1.21021,15.88447 -4.40184,21.24347 -0.47968,-0.0517 -1.43134,-0.12652 -1.86592,-0.29045 -0.79103,-0.29705 -1.197,-0.77783 -1.43134,-1.54136 -1.16179,-3.78463 1.7504,-19.77142 3.5338,-23.40423 z"
       id="path98"
       style="stroke-width:1.10018" />
    <path
       fill="#14385a"
       d="m 97.759822,302.86565 c 0.20133,0.0572 0.40487,0.10562 0.604,0.17053 1.49295,0.49068 2.366498,1.10348 3.059608,2.51722 2.74827,5.60214 1.35543,17.52705 -0.55339,23.31622 -0.0561,-10e-4 -0.11332,0.003 -0.16943,-0.004 -1.311418,-0.18593 -2.565628,-0.22334 -3.377568,-1.41374 -2.87038,-4.206 -1.10568,-19.70871 0.43678,-24.58583 z"
       id="path99"
       style="stroke-width:1.10018" />
    <path
       fill="#14385a"
       d="m 97.802732,457.98293 c 1.58426,0.47308 2.770258,1.01657 3.590998,2.54803 3.05741,5.69785 1.14859,16.36085 -0.85595,22.28974 -0.550088,-0.14302 -0.941748,-0.22333 -1.477538,-0.47088 -1.70749,-0.79103 -2.3445,-2.12885 -2.79337,-3.84294 -1.36203,-5.21818 -1.21791,-15.80526 1.53586,-20.52395 z"
       id="path100"
       style="stroke-width:1.10018" />
    <path
       fill="#14385a"
       d="m 706.90913,892.26004 c 1.37413,0.35646 2.00233,0.96926 3.04641,1.87911 0.25084,0.82624 0.52039,1.11009 0.17493,1.96934 -2.07495,5.15656 -12.4772,9.17444 -17.27841,11.19218 -0.41147,-0.12322 -0.87794,-0.23764 -1.241,-0.47418 -1.23441,-0.80424 -1.39394,-1.25311 -1.66679,-2.58654 2.10796,-5.17417 12.13504,-9.35927 16.96486,-11.97991 z"
       id="path101"
       style="stroke-width:1.10018" />
    <path
       fill="#14385a"
       d="m 915.63952,233.71352 c 0.49178,0.13093 0.98466,0.25855 1.46875,0.41697 5.58453,1.83291 12.45409,7.31403 14.97351,12.64333 0.90876,1.92312 0.69862,3.07392 -0.0561,4.99264 -5.10265,-1.7977 -15.26066,-8.58474 -17.17278,-13.80182 -0.61061,-1.66678 0.17383,-2.71856 0.78663,-4.25112 z"
       id="path102"
       style="stroke-width:1.10018" />
    <path
       fill="#14385a"
       d="m 943.76685,650.97297 c 0.6172,0.11882 1.2179,0.21014 1.8131,0.43568 1.14749,0.43567 1.83841,1.30372 2.32249,2.4006 2.40391,5.44702 1.36093,16.97475 -0.82624,22.49548 -1.57876,-0.40927 -2.66244,-0.79103 -3.49528,-2.29498 -3.07172,-5.53944 -1.30592,-17.13318 0.18593,-23.03678 z"
       id="path103"
       style="stroke-width:1.10018" />
    <path
       fill="#14385a"
       d="m 944.03639,535.60758 c 0.44008,0.066 1.13429,0.14852 1.53366,0.30915 1.11559,0.44888 1.62057,1.1695 2.13106,2.20917 2.80877,5.71216 1.12549,16.6282 -0.98137,22.38106 -0.19913,-0.0891 -0.40156,-0.17052 -0.5974,-0.26734 -1.70308,-0.84384 -2.65364,-1.86041 -3.23784,-3.68122 -1.85271,-5.78037 -1.71519,-15.61162 1.15189,-20.95082 z"
       id="path104"
       style="stroke-width:1.10018" />
    <path
       fill="#14385a"
       d="m 943.76905,573.58926 q 0.55339,0.11662 1.10128,0.25745 c 1.55346,0.40927 2.48752,0.89995 3.25655,2.3918 2.57993,4.99814 0.33776,17.2278 -1.1706,22.45697 -1.72839,-0.57979 -2.79227,-1.2113 -3.5855,-2.89128 -2.57443,-5.45472 -1.7768,-16.6348 0.39827,-22.21494 z"
       id="path105"
       style="stroke-width:1.10018" />
    <path
       fill="#14385a"
       d="m 97.218532,651.67929 c 0.34986,0.0451 0.70191,0.0836 1.05177,0.13642 1.36643,0.20794 2.208068,0.63151 2.967198,1.84722 3.38527,5.42391 1.13209,15.91857 0.0275,21.87387 -0.33996,-0.0627 -0.68432,-0.10341 -1.01767,-0.18923 -1.689888,-0.43457 -2.700958,-1.10348 -3.449078,-2.69765 -2.41491,-5.14557 -1.46545,-15.78326 0.42027,-20.97063 z"
       id="path106"
       style="stroke-width:1.10018" />
    <path
       fill="#14385a"
       d="m 97.475972,612.98799 c 2.01004,0.44777 3.098118,0.65791 4.250008,2.54142 3.11573,5.08946 1.09359,15.86687 -0.0924,21.42391 l -2.435808,-0.41917 c -0.69752,-0.47638 -1.34443,-0.91426 -1.7944,-1.65358 -3.14323,-5.16647 -1.08148,-16.24643 0.0726,-21.89258 z"
       id="path107"
       style="stroke-width:1.10018" />
    <path
       fill="#14385a"
       d="m 97.194322,573.58266 c 1.42804,0.40487 2.860478,0.69532 3.809938,1.90222 3.50409,4.45575 0.98137,17.8527 0.42137,23.38773 -0.36746,-0.0682 -0.73492,-0.12982 -1.10128,-0.20463 -1.580968,-0.32235 -2.440208,-0.82844 -3.249948,-2.28178 -2.48201,-4.45245 -1.30812,-17.76359 0.11992,-22.80354 z"
       id="path108"
       style="stroke-width:1.10018" />
    <path
       fill="#14385a"
       d="m 299.25869,872.83957 c 0.50829,0.0451 1.01547,0.10342 1.51936,0.18483 4.91342,0.79104 14.98892,6.23915 17.62386,10.52327 0.88125,1.43354 0.49398,2.70866 0.17273,4.24782 -0.22554,-0.0231 -0.45328,-0.0396 -0.67771,-0.0704 -5.48553,-0.74373 -15.01423,-5.49433 -18.25757,-10.0678 -1.24981,-1.76359 -0.77233,-2.92979 -0.38067,-4.81771 z"
       id="path109"
       style="stroke-width:1.10018" />
    <path
       fill="#14385a"
       d="m 774.92256,856.05735 c 0.81744,0.17383 1.57547,0.50829 2.3555,0.80314 0.37406,0.6249 0.71842,0.80423 0.48188,1.56996 -1.34443,4.34353 -14.40912,10.27793 -18.37199,12.52231 -0.79213,-0.34106 -1.52046,-0.63481 -2.15746,-1.23661 -1.10349,-1.04298 -1.04518,-1.12549 -1.05838,-2.56343 3.05081,-5.65825 13.0889,-8.8796 18.75045,-11.09537 z"
       id="path110"
       style="stroke-width:1.10018" />
    <path
       fill="#14385a"
       d="m 533.58819,25.300207 c 1.26961,0.02541 2.50402,0.135763 3.72082,0.516647 3.98267,1.24761 13.60599,5.898752 14.98342,9.9328 0.5776,1.691314 0.0506,2.43746 -0.53799,3.980249 -5.74076,-1.173017 -15.65343,-5.540091 -18.97049,-10.561335 -0.37296,-1.585917 0.15403,-2.470686 0.80424,-3.868361 z"
       id="path111"
       style="stroke-width:1.10018" />
    <path
       fill="#14385a"
       d="m 944.56448,303.34423 c 0.29265,0.0869 0.593,0.15073 0.87795,0.25854 1.04737,0.39717 1.75589,1.11449 2.21247,2.12886 2.77797,6.18194 0.77893,17.18049 -1.28832,23.37453 -2.04634,-1.2179 -3.11462,-2.53262 -3.72632,-4.81771 -1.69099,-6.30956 -1.28282,-15.26286 1.92422,-20.94422 z"
       id="path112"
       style="stroke-width:1.10018" />
    <path
       fill="#14385a"
       d="m 461.99475,960.88079 c 0.73163,0.1452 1.43024,0.3069 2.14536,0.5259 4.34463,1.3279 14.31121,6.3931 15.89658,10.7895 0.52038,1.4401 -0.20464,2.4688 -0.75143,3.7494 -1.32022,-0.3366 -2.59314,-0.7525 -3.86825,-1.2289 -4.27202,-1.5942 -13.00529,-4.9948 -14.45753,-9.7839 -0.46098,-1.5205 0.42577,-2.723 1.03527,-4.052 z"
       id="path113"
       style="stroke-width:1.10018" />
    <path
       fill="#14385a"
       d="m 429.20044,943.96873 0.25194,0.0539 c 1.09469,0.22114 2.17947,0.46978 3.24225,0.81634 4.27972,1.39612 13.6951,5.19402 15.25736,9.82462 0.52699,1.5623 -0.0638,2.4876 -0.6194,3.8859 q -1.49295,-0.3741 -2.9606,-0.835 c -4.24671,-1.3456 -14.2507,-5.4042 -15.81846,-9.8544 -0.6007,-1.7042 -0.0176,-2.36541 0.64691,-3.89137 z"
       id="path114"
       style="stroke-width:1.10018" />
    <path
       fill="#14385a"
       d="m 741.829,138.3781 c 0.94726,0.18373 1.89672,0.36526 2.80767,0.69201 4.46125,1.59857 15.4554,6.81675 16.96265,11.267 0.50499,1.49075 -0.0418,2.50732 -0.68211,3.79894 -4.90133,-1.35543 -16.97916,-6.82775 -19.22574,-11.41002 -0.87794,-1.7922 -0.36196,-2.56783 0.13753,-4.34793 z"
       id="path115"
       style="stroke-width:1.10018" />
    <path
       fill="#14385a"
       d="m 97.735612,342.61533 c 1.07158,0.38507 2.434708,0.77893 3.202638,1.66458 3.94086,4.54817 1.12659,16.91425 0.38507,22.52299 -1.00887,-0.13862 -2.095858,-0.21564 -2.958398,-0.82514 -1.14199,-0.80974 -1.69429,-2.26088 -2.04524,-3.5602 -1.37524,-5.08835 -1.10679,-15.12204 1.41593,-19.80223 z"
       id="path116"
       style="stroke-width:1.10018" />
    <path
       fill="#14385a"
       d="m 201.87912,818.91181 c 5.3282,0.99456 16.90874,6.35136 19.85174,11.01505 0.88675,1.40493 0.45878,2.73396 0.12982,4.24341 -0.67221,0.0319 -0.89335,0.0627 -1.62607,-0.008 -5.26439,-0.50278 -13.71601,-5.9399 -17.06497,-9.98198 -1.47865,-1.7856 -1.44674,-3.09812 -1.29052,-5.26878 z"
       id="path117"
       style="stroke-width:1.10018" />
    <path
       fill="#14385a"
       d="m 846.30696,195.96398 c 0.92966,0.12212 1.84941,0.25634 2.75927,0.48848 4.60427,1.1739 14.76888,5.9531 16.76681,10.50017 0.63921,1.45334 0.0792,2.44571 -0.35976,3.82644 -0.19693,-0.0396 -0.39496,-0.077 -0.59189,-0.11992 -5.10046,-1.12109 -15.99119,-5.89699 -18.56233,-10.61569 -0.86144,-1.58096 -0.44227,-2.48311 -0.0121,-4.07948 z"
       id="path118"
       style="stroke-width:1.10018" />
    <path
       fill="#14385a"
       d="m 97.922652,418.82184 c 0.55559,0.11442 1.05397,0.19144 1.58426,0.42138 1.340028,0.57869 1.981428,1.95282 2.347798,3.28075 1.57106,5.69565 1.39283,15.85696 -1.66678,20.90571 -1.634878,-0.56329 -2.683358,-1.05178 -3.399578,-2.66905 -2.47871,-5.58894 -1.01657,-16.34985 1.1343,-21.93879 z"
       id="path119"
       style="stroke-width:1.10018" />
    <path
       fill="#14385a"
       d="m 96.959982,380.98098 c 1.58427,0.19694 3.254348,0.17163 4.248918,1.61177 3.0035,4.34353 1.09248,17.86151 -0.47088,22.81124 -1.597468,-0.6062 -2.641548,-0.98137 -3.505188,-2.57663 -2.83078,-5.23028 -1.8076,-16.28164 -0.27285,-21.84638 z"
       id="path120"
       style="stroke-width:1.10018" />
    <path
       fill="#14385a"
       d="m 568.18681,44.016004 c 0.76242,0.06095 1.49515,0.173719 2.23887,0.35822 4.38974,1.089843 15.21886,5.780037 17.06057,10.203337 0.66451,1.59582 0.21564,2.28673 -0.26514,3.81049 q -1.37964,-0.0352 -2.71636,-0.37516 c -4.23901,-1.03968 -14.8635,-6.08315 -16.53138,-10.28277 -0.6029,-1.520569 -0.21784,-2.211925 0.21344,-3.714117 z"
       id="path121"
       style="stroke-width:1.10018" />
    <path
       fill="#14385a"
       d="m 901.38112,786.1648 c 1.26411,-0.10782 2.44351,-0.18373 3.63061,0.33776 0.91426,0.40157 0.62051,0.28715 0.94506,1.36533 -2.23778,5.13346 -12.12404,9.45279 -16.92965,12.15484 -0.31685,0.0539 -0.6293,0.13642 -0.94946,0.16283 -1.25421,0.10012 -2.16846,-0.17823 -3.07611,-1.01767 -0.005,-0.61501 -0.044,-1.06168 0.11992,-1.68329 1.44564,-5.49762 11.48043,-9.20194 16.25963,-11.3198 z"
       id="path122"
       style="stroke-width:1.10018" />
    <path
       fill="#14385a"
       d="m 641.9168,928.00835 c 1.51936,0.42357 2.51392,0.65791 3.61521,1.88021 0.11332,0.74703 0.32235,1.12989 -0.0484,1.84281 -2.34889,4.51846 -12.03492,8.56934 -16.659,10.11951 -1.53036,-0.11002 -2.27848,-0.32786 -3.5811,-1.142 l -0.26625,-1.1805 c 2.52273,-5.03774 12.01512,-8.9225 16.93955,-11.52003 z"
       id="path123"
       style="stroke-width:1.10018" />
    <path
       fill="#14385a"
       d="m 939.87219,263.80908 2.08925,0.33116 c 1.29382,0.84384 1.99354,1.63707 2.73176,3.00791 3.20594,5.952 4.20711,15.84046 2.15637,22.19843 -0.61941,-0.0638 -1.20911,-0.35096 -1.79221,-0.5644 -0.78003,-0.91535 -1.27731,-1.72949 -1.69098,-2.86598 -0.94616,-2.59974 -4.22581,-16.38835 -4.38204,-18.81426 -0.0847,-1.30592 0.36416,-2.12776 0.88785,-3.29286 z"
       id="path124"
       style="stroke-width:1.10018" />
    <path
       fill="#14385a"
       d="m 740.49887,874.72199 c 0.18263,0.022 0.36967,0.0176 0.5468,0.0671 1.51385,0.42467 1.95282,0.64251 2.81647,1.86481 -0.0341,0.18594 -0.0473,0.37737 -0.10342,0.5567 -1.40273,4.42054 -13.98995,9.90166 -18.02543,11.9216 -0.85594,-0.0935 -2.49302,-0.53469 -3.15533,-1.11339 -0.43017,-0.37626 -0.66231,-0.73492 -0.53469,-1.31912 1.05068,-4.81991 14.10217,-10.01828 18.4556,-11.97771 z"
       id="path125"
       style="stroke-width:1.10018" />
    <path
       fill="#14385a"
       d="m 866.21701,803.85688 c 0.41697,0.002 0.96486,-0.006 1.39723,0.0341 1.7669,0.16063 2.91549,0.65021 4.02778,1.97043 -0.008,0.51599 0.0209,0.87685 -0.16283,1.39284 -1.49075,4.1642 -10.30433,7.64628 -14.09116,9.38017 -1.41484,0.36307 -2.12776,0.37737 -3.5426,0.0121 -0.98797,-1.24431 -1.02427,-1.27512 -1.05398,-2.85828 2.15967,-4.58007 9.16674,-7.57258 13.42556,-9.93137 z"
       id="path126"
       style="stroke-width:1.10018" />
    <path
       fill="#14385a"
       d="m 707.59784,119.13256 c 0.42687,0.10452 0.85375,0.21344 1.27512,0.33776 4.184,1.24211 15.71174,6.28535 17.33121,10.60688 0.6161,1.64478 0.19913,2.40611 -0.26404,3.96837 -0.67222,-0.0902 -1.36093,-0.17933 -2.01774,-0.35316 -4.7143,-1.24871 -14.03616,-5.42941 -16.27174,-9.96768 -0.83944,-1.70198 -0.51048,-2.87038 -0.0528,-4.59217 z"
       id="path127"
       style="stroke-width:1.10018" />
    <path
       fill="#14385a"
       d="m 674.35135,911.0743 c 1.7636,0.005 2.81318,0.21894 4.20931,1.33343 l -0.11552,1.17169 c -3.76813,5.20168 -11.54204,8.3251 -17.15298,11.03596 -0.84054,0.25084 -1.42914,0.12982 -2.29059,0.0451 -1.2355,-0.91316 -1.54796,-0.89776 -1.88241,-2.3698 1.95503,-5.01795 12.5212,-8.9071 17.23219,-11.21639 z"
       id="path128"
       style="stroke-width:1.10018" />
    <path
       fill="#14385a"
       d="m 944.15081,420.06285 c 1.43134,0.42797 2.66245,0.65681 3.49859,2.02214 2.89239,4.7242 0.27505,16.92195 -1.23661,21.9971 -0.45437,-0.16063 -0.56219,-0.18263 -1.04077,-0.43677 -1.7581,-0.93076 -2.41931,-2.04415 -2.92209,-3.88806 -1.55677,-5.71766 -1.186,-14.44762 1.70088,-19.69441 z"
       id="path129"
       style="stroke-width:1.10018" />
    <path
       fill="#14385a"
       d="m 811.51801,176.94288 c 5.18408,1.8032 17.40053,5.66155 19.55359,11.08986 0.64141,1.61838 0.25414,2.50183 -0.31025,4.03108 -4.70219,-1.54686 -17.49734,-6.37997 -19.52498,-11.20978 -0.67442,-1.60627 -0.19474,-2.3698 0.28164,-3.91116 z"
       id="path130"
       style="stroke-width:1.10018" />
    <path
       fill="#14385a"
       d="m 609.85961,945.61241 c 0.85154,0.24644 1.68548,0.71618 2.49192,1.08918 0.84054,1.1618 0.90655,1.12 0.78223,2.5348 -3.15643,5.216 -11.46173,8.236 -16.83503,10.7906 -1.02757,-0.1991 -1.89452,-0.2541 -2.72406,-0.9395 -0.593,-0.4896 -0.43567,-0.9363 -0.50058,-1.6459 2.72846,-5.2897 11.64326,-9.0347 16.78552,-11.82918 z"
       id="path131"
       style="stroke-width:1.10018" />
    <path
       fill="#14385a"
       d="m 97.736712,536.18408 c 0.74153,0.26844 1.62498,0.54679 2.26198,1.02317 1.617278,1.2069 2.094758,3.95186 2.376398,5.80457 0.74153,4.87492 0.78444,13.11091 -2.22017,17.13098 -0.0836,-0.0506 -0.167228,-0.10231 -0.250838,-0.15072 -1.66568,-0.95716 -2.54143,-1.56997 -3.14763,-3.45238 -1.68658,-5.23798 -1.70199,-15.4785 0.98026,-20.35562 z"
       id="path132"
       style="stroke-width:1.10018" />
    <path
       fill="#14385a"
       d="m 395.62499,925.79698 c 0.77123,0.0187 0.88675,0.008 1.7372,0.10121 5.25008,0.5732 12.68513,5.06085 15.79865,9.12274 1.43794,1.87471 1.197,3.28625 0.91646,5.47452 -5.79578,-1.1475 -13.22203,-5.02125 -17.11338,-9.54851 -1.46985,-1.71079 -1.55016,-2.9749 -1.33893,-5.14996 z"
       id="path133"
       style="stroke-width:1.10018" />
    <path
       fill="#14385a"
       d="m 673.15545,100.59775 c 5.10156,1.90332 15.61493,5.73306 18.38849,10.70479 0.93296,1.67119 0.46098,2.72076 0.0814,4.46456 l -0.26405,-0.0495 c -0.42797,-0.077 -0.85594,-0.15293 -1.27841,-0.25415 -4.61748,-1.10678 -15.18696,-6.21824 -17.2421,-10.66849 -0.83724,-1.812 -0.29595,-2.46991 0.31465,-4.1972 z"
       id="path134"
       style="stroke-width:1.10018" />
    <path
       fill="#14385a"
       d="m 331.97599,890.48214 0.79654,0.15953 c 5.27538,1.07158 14.17038,5.18847 17.01436,9.88626 1.00337,1.65578 0.5941,2.9815 0.10122,4.69559 -4.93433,-1.44124 -16.06161,-5.75287 -18.25317,-10.63329 -0.68542,-1.52706 -0.0902,-2.62724 0.34105,-4.10809 z"
       id="path135"
       style="stroke-width:1.10018" />
    <path
       fill="#14385a"
       d="m 882.02117,214.80795 c 4.73409,1.09138 15.74474,5.86178 17.78559,10.40224 0.77233,1.71849 0.31465,2.57224 -0.11992,4.26542 -5.07956,-1.55896 -16.50058,-5.55483 -18.57993,-10.87313 -0.6216,-1.58756 0.20354,-2.45561 0.91426,-3.79453 z"
       id="path136"
       style="stroke-width:1.10018" />
    <path
       fill="#14385a"
       d="m 478.02225,41.275773 c 1.09138,0.207275 1.73059,0.371312 2.68335,0.995997 0.97146,0.637888 0.75472,0.707419 0.97256,1.745554 -2.52932,5.241387 -11.86879,8.714897 -16.93845,11.225297 -0.31685,0.007 -0.6337,0.0402 -0.94946,0.0209 -1.24981,-0.0765 -2.23667,-0.44502 -3.11242,-1.28908 l 0.19033,-1.06388 c 4.1719,-5.63042 11.05136,-8.5513 17.15409,-11.634788 z"
       id="path137"
       style="stroke-width:1.10018" />
    <path
       fill="#14385a"
       d="m 108.79137,761.54816 c 4.20821,1.44455 10.79722,8.9269 13.72041,12.33198 2.20807,2.57223 2.83408,3.66361 2.58653,7.04338 -0.83724,-0.0836 -1.66348,-0.15403 -2.48091,-0.36416 -4.7418,-1.22011 -10.45616,-7.45485 -12.78305,-11.41442 -1.68549,-2.86708 -1.87252,-4.39964 -1.04298,-7.59678 z"
       id="path138"
       style="stroke-width:1.10018" />
    <path
       fill="#14385a"
       d="m 363.78124,907.94648 c 5.88489,0.81083 12.4739,3.82644 16.45987,8.30419 1.89012,2.12226 1.94072,3.46338 1.76469,6.17974 -5.45801,-0.47968 -12.4948,-4.37324 -16.21232,-8.335 -1.99134,-2.12116 -2.09035,-3.36877 -2.01224,-6.14893 z"
       id="path139"
       style="stroke-width:1.10018" />
    <path
       fill="#14385a"
       d="m 933.59564,767.47706 c 0.46097,-0.009 1.05727,-0.0418 1.49955,0.0638 1.39723,0.33556 1.66238,0.64471 2.25098,1.81971 -1.7471,4.87822 -11.49033,9.47039 -15.93728,12.09213 -1.57877,-0.17273 -2.45231,-0.62931 -3.81984,-1.37083 -0.37517,-1.13539 -0.51709,-0.82954 -0.0924,-1.7889 2.33459,-5.27209 11.14267,-8.65846 16.09901,-10.81592 z"
       id="path140"
       style="stroke-width:1.10018" />
    <path
       fill="#14385a"
       d="m 123.41943,234.89512 1.83731,0.43678 c 1.1651,1.09138 1.1739,0.98686 1.26961,2.57113 -2.57663,5.49762 -9.82685,10.36704 -14.39482,14.3013 -1.17169,0.055 -1.87801,-0.36416 -2.91109,-0.87134 -0.37076,-0.6029 -0.74812,-0.88015 -0.6194,-1.62828 0.96266,-5.61314 10.53867,-11.81818 14.81839,-14.80959 z"
       id="path141"
       style="stroke-width:1.10018" />
    <path
       fill="#14385a"
       d="m 943.93298,380.88197 c 1.71188,0.44227 2.33789,0.39386 3.36546,1.92752 2.998,4.47555 0.97036,18.04963 -0.49398,23.05988 -1.197,-0.45658 -2.15967,-0.86695 -3.01451,-1.86372 -3.86715,-4.51075 -0.90215,-17.79989 0.14303,-23.12368 z"
       id="path142"
       style="stroke-width:1.10018" />
    <path
       fill="#14385a"
       d="m 137.92427,784.19437 c 5.80678,0.69092 13.98555,4.744 17.77349,9.21955 1.45444,1.71849 1.1926,2.78897 0.93956,4.86392 -4.78141,-1.04408 -16.43017,-5.14887 -18.86488,-9.5089 -0.97036,-1.73829 -0.31575,-2.79117 0.15183,-4.57457 z"
       id="path143"
       style="stroke-width:1.10018" />
    <path
       fill="#14385a"
       d="m 944.28833,342.48771 c 1.57437,0.72612 2.85829,1.00557 3.5492,2.75376 2.03644,5.15547 1.02317,17.12658 -1.01987,22.20614 -1.62937,-1.05618 -2.63384,-1.61617 -3.32916,-3.49089 -2.3698,-6.38217 -1.81751,-15.27387 0.79983,-21.46901 z"
       id="path144"
       style="stroke-width:1.10018" />
    <path
       fill="#14385a"
       d="m 348.6735,111.72392 c 0.26735,0.033 0.54129,0.0341 0.80204,0.10011 1.52265,0.38287 1.94622,0.67552 2.84287,1.85931 -0.0297,0.19584 -0.0352,0.39717 -0.0891,0.5886 -1.28942,4.53387 -13.02399,9.64863 -17.02206,11.59155 -1.24431,-0.0902 -1.71299,-0.36086 -2.69876,-1.11118 -0.29925,-0.79654 -0.69751,-1.24651 -0.37956,-2.09806 1.66898,-4.47445 12.37598,-8.76847 16.54458,-10.93033 z"
       id="path145"
       style="stroke-width:1.10018" />
    <path
       fill="#14385a"
       d="m 835.38543,821.32561 c 0.99016,0.35426 1.7889,0.86255 2.69985,1.38954 0.85704,1.43794 0.88785,1.41593 0.63041,3.06291 -2.98481,4.46895 -9.22946,6.98067 -14.03616,9.04792 -1.23661,-0.54459 -1.81641,-1.06498 -2.84178,-1.92532 -0.31685,-0.78773 -0.67772,-1.197 -0.44118,-2.06835 1.1497,-4.21261 10.17672,-7.61878 13.98886,-9.5067 z"
       id="path146"
       style="stroke-width:1.10018" />
    <path
       fill="#14385a"
       d="m 235.09811,837.07806 c 5.48332,1.62607 13.92394,5.3623 17.67887,9.74654 1.40163,1.63707 1.2047,2.76476 1.00007,4.7462 -0.5897,0.0528 -0.69202,0.0803 -1.36203,0.0352 -5.14007,-0.34435 -13.0845,-5.03004 -16.40266,-8.928 -1.52926,-1.7955 -1.14859,-3.42597 -0.91425,-5.59994 z"
       id="path147"
       style="stroke-width:1.10018" />
    <path
       fill="#14385a"
       d="m 577.85303,963.86889 1.71519,1.3191 c 0.29375,0.8075 0.66561,1.2377 0.36636,2.0992 -1.59087,4.5877 -12.77205,8.6991 -17.11008,10.4528 -0.42137,-0.1793 -1.13759,-0.4566 -1.47975,-0.7426 -0.97806,-0.8163 -0.95496,-1.4787 -0.98136,-2.6184 2.53373,-5.0026 12.486,-8.2635 17.48964,-10.5101 z"
       id="path148"
       style="stroke-width:1.10018" />
    <path
       fill="#14385a"
       d="m 316.5195,129.32137 c 0.45547,-0.0121 0.94285,-0.0506 1.39063,0.0693 1.33122,0.35756 1.7933,0.67441 2.42921,1.79 -0.0528,0.17383 -0.0858,0.35426 -0.15733,0.52148 -2.15966,4.97394 -13.05369,9.40108 -17.75588,11.53104 -1.42144,-0.20463 -1.99574,-0.43457 -3.09262,-1.36643 l -0.0495,-1.05397 c 3.32146,-5.28419 11.75987,-8.71567 17.2355,-11.49144 z"
       id="path149"
       style="stroke-width:1.10018" />
    <path
       fill="#14385a"
       d="m 413.13774,77.081291 c 0.19363,0.0374 0.39276,0.0539 0.5798,0.11332 1.29051,0.41477 1.95392,0.84494 2.64704,1.99024 -0.0429,0.46207 -0.0319,0.71071 -0.26184,1.16839 -2.3621,4.70219 -12.34848,8.37791 -17.04847,10.50677 -1.31582,-0.24864 -1.90112,-0.63701 -2.93309,-1.47755 l -0.11442,-1.2135 c 3.45018,-5.3326 11.52774,-8.39772 17.13098,-11.08767 z"
       id="path150"
       style="stroke-width:1.10018" />
    <path
       fill="#14385a"
       d="m 97.722412,727.95512 c 1.80981,0.6128 2.738358,0.94615 3.548098,2.75596 2.35879,5.27209 3.98707,15.57642 2.05294,20.98603 -2.02764,-0.54129 -2.9848,-1.24431 -3.969458,-3.05632 -2.9496,-5.43051 -3.5481,-14.78758 -1.63158,-20.68567 z"
       id="path151"
       style="stroke-width:1.10018" />
    <path
       fill="#14385a"
       d="m 283.77909,146.85392 c 1.64808,-0.0979 3.00021,0.19143 4.26762,1.208 l -0.13202,1.1497 c -3.67572,5.12136 -10.52767,8.26019 -16.0143,11.03045 -0.54899,0.0242 -1.34882,0.0748 -1.87691,0.0198 -1.53476,-0.15843 -1.83181,-0.32346 -2.73946,-1.44235 0.0352,-0.18923 0.0462,-0.38506 0.10562,-0.56769 1.39833,-4.22801 12.46069,-9.20415 16.38945,-11.39792 z"
       id="path152"
       style="stroke-width:1.10018" />
    <path
       fill="#14385a"
       d="m 493.91552,979.67849 c 0.21233,0.024 0.42577,0.045 0.63811,0.072 5.21597,0.6524 12.22525,3.5712 15.39488,7.9092 1.30482,1.7867 1.02428,3.2411 0.74593,5.2853 -0.31135,-0.047 -0.62381,-0.087 -0.93296,-0.1419 -4.28412,-0.7537 -13.98115,-4.9311 -16.04619,-8.8279 -0.92086,-1.7394 -0.32676,-2.5679 0.20023,-4.2963 z"
       id="path153"
       style="stroke-width:1.10018" />
    <path
       fill="#14385a"
       d="m 187.4436,200.2745 c 0.99236,-0.10782 0.78113,-0.17933 1.56226,-0.008 1.47535,0.32236 1.49955,0.29925 2.23777,1.52046 -0.0968,0.72502 -0.0748,0.87244 -0.40706,1.62717 -1.98034,4.48545 -11.43203,7.91473 -15.65454,10.02379 -0.77563,0.10451 -1.48195,-0.0341 -2.25428,-0.12653 -1.11888,-1.00777 -1.17059,-0.94615 -1.34552,-2.427 2.46881,-4.82211 11.08656,-8.19858 15.86137,-10.61019 z"
       id="path154"
       style="stroke-width:1.10018" />
    <path
       fill="#14385a"
       d="m 544.29409,980.90529 c 1.41154,0.097 1.53146,0.075 2.61734,0.9615 0.49838,1.3367 0.95166,2.0255 0.27835,3.4304 -1.93523,4.0399 -10.1074,6.9488 -14.09998,8.5253 -1.13759,0 -1.56446,-0.1221 -2.27408,-1.1057 -0.80313,-1.1145 -0.78113,-2.0067 -0.25854,-3.2235 1.51275,-3.5228 10.22952,-6.863 13.73691,-8.588 z"
       id="path155"
       style="stroke-width:1.10018" />
    <path
       fill="#14385a"
       d="m 507.97258,24.42358 c 1.97153,0.01518 3.50739,0.18208 4.96184,1.564463 l -0.16613,1.363459 c -3.35777,4.445847 -9.72564,6.972642 -14.72268,9.140557 -0.6062,0.08174 -1.55346,0.283957 -2.18496,0.203754 -1.38954,-0.17636 -1.68659,-0.23698 -2.47872,-1.357188 0.0418,-0.190442 0.0583,-0.387705 0.12322,-0.571436 1.52486,-4.320757 10.47596,-8.225203 14.46743,-10.343609 z"
       id="path156"
       style="stroke-width:1.10018" />
    <path
       fill="#14385a"
       d="m 381.15866,94.068151 c 1.02868,0.23984 1.7636,0.5974 2.70536,1.06058 0.28495,0.65901 0.66451,1.01657 0.36526,1.73609 -1.84281,4.419439 -12.07563,8.870789 -16.27724,11.195479 -1.08258,-0.0484 -1.60187,-0.0902 -2.55793,-0.67331 -0.91205,-0.5556 -0.73602,-0.67882 -0.99016,-1.61838 1.91652,-4.95413 12.18234,-9.238249 16.75471,-11.700459 z"
       id="path157"
       style="stroke-width:1.10018" />
    <path
       fill="#14385a"
       d="m 805.14464,838.94728 c 1.27732,0.0473 1.91652,0.28824 3.02881,0.90875 0.43017,0.85154 0.65351,0.75693 0.37736,1.46985 -1.73939,4.48325 -12.10973,8.75967 -16.33664,10.67729 -1.09028,-0.0715 -1.7471,-0.11882 -2.73066,-0.65681 -0.91866,-0.50278 -0.72612,-0.62711 -0.97476,-1.54906 2.25427,-4.94753 11.85449,-8.52313 16.63589,-10.85002 z"
       id="path158"
       style="stroke-width:1.10018" />
    <path
       fill="#14385a"
       d="m 220.53826,182.09505 c 1.06718,0.15512 1.73609,0.20793 2.62064,0.88675 0.73822,0.56659 0.56439,0.76352 0.67441,1.60737 -2.65254,5.05645 -11.8897,8.63315 -16.91864,11.15257 -1.04518,-0.17493 -1.70529,-0.24094 -2.56343,-0.92305 -0.73383,-0.582 -0.55119,-0.84495 -0.64911,-1.70529 2.72736,-4.78471 11.9249,-8.42852 16.83613,-11.01835 z"
       id="path159"
       style="stroke-width:1.10018" />
    <path
       fill="#14385a"
       d="m 155.3424,217.87306 c 1.53146,0.43347 2.11565,0.47528 3.24884,1.63708 l -0.12102,1.38073 c -3.35006,4.7451 -11.01285,7.83772 -16.18262,10.16571 -0.97806,-0.21784 -1.66898,-0.48848 -2.57333,-0.89555 -0.35646,-0.66672 -0.77013,-0.98247 -0.51048,-1.7636 1.33342,-4.01127 12.32427,-8.56274 16.13861,-10.52437 z"
       id="path160"
       style="stroke-width:1.10018" />
    <path
       fill="#14385a"
       d="m 444.27187,60.032831 c 0.46318,-0.0275 1.07928,-0.0781 1.52926,-0.0275 1.41264,0.16063 1.66348,0.33666 2.48202,1.38073 -0.0286,0.16723 -0.033,0.33996 -0.0858,0.50169 -1.32682,4.12899 -12.25826,9.07542 -16.0847,11.19988 -0.77343,0.088 -1.56226,-0.009 -2.33789,-0.0495 -1.01658,-1.00667 -1.05068,-1.00777 -1.22011,-2.42151 2.04634,-4.75279 11.17788,-8.29869 15.71724,-10.58377 z"
       id="path161"
       style="stroke-width:1.10018" />
    <path
       fill="#14385a"
       d="m 252.42712,164.5845 c 0.93186,0.20134 1.74159,0.54129 2.62724,0.89005 l 0.47748,1.21901 c -1.62387,4.65158 -11.81158,8.9181 -16.13971,11.20648 -1.67008,-0.25634 -2.02544,-0.26954 -3.31266,-1.32682 l 0.0572,-1.1662 c 3.52059,-5.08945 10.90614,-8.16777 16.29044,-10.82252 z"
       id="path162"
       style="stroke-width:1.10018" />
  </g>
</svg>
